<?xml version="1.0" encoding="UTF-8" standalone="no"?>
<svg
   xmlns:dc="http://purl.org/dc/elements/1.1/"
   xmlns:cc="http://creativecommons.org/ns#"
   xmlns:rdf="http://www.w3.org/1999/02/22-rdf-syntax-ns#"
   xmlns:svg="http://www.w3.org/2000/svg"
   xmlns="http://www.w3.org/2000/svg"
   xmlns:sodipodi="http://sodipodi.sourceforge.net/DTD/sodipodi-0.dtd"
   xmlns:inkscape="http://www.inkscape.org/namespaces/inkscape"
   version="1.1"
   id="svg2"
   xml:space="preserve"
   width="600.12"
   height="600.23999"
   viewBox="0 0 600.12 600.23999"
   sodipodi:docname="3026240.eps"><metadata
     id="metadata8"><rdf:RDF><cc:Work
         rdf:about=""><dc:format>image/svg+xml</dc:format><dc:type
           rdf:resource="http://purl.org/dc/dcmitype/StillImage" /></cc:Work></rdf:RDF></metadata><defs
     id="defs6" /><sodipodi:namedview
     pagecolor="#ffffff"
     bordercolor="#666666"
     borderopacity="1"
     objecttolerance="10"
     gridtolerance="10"
     guidetolerance="10"
     inkscape:pageopacity="0"
     inkscape:pageshadow="2"
     inkscape:window-width="640"
     inkscape:window-height="480"
     id="namedview4" /><g
     id="g10"
     inkscape:groupmode="layer"
     inkscape:label="ink_ext_XXXXXX"
     transform="matrix(1.3333333,0,0,-1.3333333,0,600.24)"><g
       id="g12"
       transform="scale(0.1)"><path
         d="m 3841.78,2218.04 c 878.85,-507.4 878.85,-1330.071 -0.01,-1837.489 -878.87,-507.399 -2303.78,-507.399 -3182.633,0 -878.852,507.41 -878.848,1330.079 0.008,1837.489 878.865,507.41 2303.775,507.41 3182.635,0"
         style="fill:#f3f2f1;fill-opacity:1;fill-rule:nonzero;stroke:none"
         id="path14" /><path
         d="m 2928.25,992.73 c 161.59,-93.289 161.59,-244.558 0,-337.859 -161.6,-93.289 -423.59,-93.289 -585.18,0 -161.59,93.301 -161.59,244.559 0,337.859 161.6,93.29 423.59,93.29 585.18,0"
         style="fill:#dadbd8;fill-opacity:1;fill-rule:nonzero;stroke:none"
         id="path16" /><path
         d="m 4004.78,1134.19 c 161.59,-93.29 161.59,-244.549 0,-337.85 -161.61,-93.301 -423.6,-93.301 -585.19,0 -161.59,93.289 -161.59,244.56 0,337.85 161.6,93.3 423.59,93.3 585.19,0"
         style="fill:#dadbd8;fill-opacity:1;fill-rule:nonzero;stroke:none"
         id="path18" /><path
         d="m 1741.39,634.52 c 161.59,-93.301 161.59,-244.559 0,-337.848 -161.59,-93.301 -423.59,-93.301 -585.18,-0.012 -161.589,93.301 -161.589,244.559 0,337.86 161.6,93.289 423.59,93.289 585.18,0"
         style="fill:#dadbd8;fill-opacity:1;fill-rule:nonzero;stroke:none"
         id="path20" /><path
         d="m 770.418,1251.21 c 0,0 -10.855,252.61 -116.711,393.16 -105.855,140.54 -235.719,160.82 -300.148,121.26 -46.946,-28.83 -40.618,-114.4 40.66,-170.34 81.285,-55.92 237.969,-198.11 262.453,-291.02 l 113.746,-53.06"
         style="fill:#273e47;fill-opacity:1;fill-rule:nonzero;stroke:none"
         id="path22" /><path
         d="m 700.918,1288.02 c -3.563,0.22 -6.309,3.27 -6.137,6.85 10.879,229.19 -190.246,372.11 -244.707,397.83 -3.269,1.55 -4.668,5.46 -3.129,8.72 1.551,3.29 5.453,4.64 8.719,3.14 56.129,-26.52 263.426,-173.86 252.207,-410.31 -0.176,-3.62 -3.246,-6.42 -6.851,-6.24 l -0.102,0.01"
         style="fill:#ffffff;fill-opacity:1;fill-rule:nonzero;stroke:none"
         id="path24" /><path
         d="m 720.113,1330.96 c -14.711,2.12 -28.949,4.73 -38.629,15.4 -12.328,13.58 -11.285,34.23 -16.957,51.68 -9.297,28.59 -37.507,47.97 -66.933,54.11 -29.43,6.15 -60.016,1.1 -89.207,-6.06 -32.782,-8.05 -64.852,-0.41 -97.028,7.23 -25.722,6.1 -51.511,12.21 -77.781,10.3 -21.105,-1.53 -42.547,-6.55 -59.855,-18.73 -17.305,-12.18 -29.844,-32.5 -28.649,-53.63 0.996,-17.63 11.227,-33.7 24.352,-45.51 13.129,-11.79 29.051,-19.95 44.777,-27.96 17.289,-8.82 34.578,-17.63 51.863,-26.45 8.575,-4.37 17.293,-8.85 24.11,-15.64 12.828,-12.78 21.715,-37.5 18.125,-55.25 -4.004,-19.78 -20.235,-35.24 -25.059,-54.84 -6.332,-25.74 9.391,-53.23 31.957,-67.13 22.571,-13.91 50.367,-16.53 76.832,-15 26.465,1.53 52.657,6.82 79.168,7.29 17.856,0.32 36.453,-1.8 51.633,-11.22 18.512,-11.49 29.277,-32.15 36.273,-52.8 4.5,-13.26 7.965,-27.238 16.227,-38.559 8.559,-11.722 21.598,-19.511 35.231,-24.5 26.128,-9.562 56.503,-9.851 82.578,0.149 21.863,8.379 32.558,33.09 40.722,54.47 8.196,21.46 12.09,47.07 11.508,69.85 -1.508,59.49 -14.906,123.69 -40.683,177.4 -12.305,25.64 -30.176,51.22 -57.196,60.1 -8.629,2.84 -18.097,3.97 -27.379,5.3"
         style="fill:#33535f;fill-opacity:1;fill-rule:nonzero;stroke:none"
         id="path26" /><path
         d="m 777.402,1056.31 c -2.418,0 -4.672,1.51 -5.507,3.91 -61.653,176.87 -353.633,330.82 -460.387,348.46 -3.184,0.53 -5.336,3.52 -4.813,6.71 0.528,3.19 3.602,5.35 6.707,4.81 108.797,-17.97 406.477,-175.26 469.508,-356.12 1.074,-3.05 -0.531,-6.38 -3.578,-7.44 l -1.93,-0.33"
         style="fill:#ffffff;fill-opacity:1;fill-rule:nonzero;stroke:none"
         id="path28" /><path
         d="m 515.039,1153.16 c -1.746,0 -3.48,0.78 -4.633,2.28 -1.957,2.55 -1.48,6.22 1.074,8.18 2.657,2.05 66.09,49.95 162.168,52.1 h 0.125 c 3.172,0 5.774,-2.53 5.84,-5.71 0.071,-3.22 -2.484,-5.9 -5.711,-5.97 -92.285,-2.06 -154.691,-49.19 -155.308,-49.67 -1.059,-0.81 -2.313,-1.21 -3.555,-1.21"
         style="fill:#ffffff;fill-opacity:1;fill-rule:nonzero;stroke:none"
         id="path30" /><path
         d="m 780.473,919.41 c -11.684,6.75 -21.157,23.879 -21.157,38.262 l -0.007,2083.978 c 0,14.38 10.097,31.87 22.558,39.06 l 2451.703,1415.4 c 12.46,7.19 32.03,7.55 43.72,0.8 11.68,-6.74 21.16,-23.87 21.16,-38.26 l 0.01,-2083.97 c 0,-14.39 -10.1,-31.88 -22.56,-39.07 L 824.184,920.219 c -12.457,-7.199 -32.028,-7.559 -43.711,-0.809"
         style="fill:#33535f;fill-opacity:1;fill-rule:nonzero;stroke:none"
         id="path32" /><path
         d="m 819.898,918.262 -0.937,-0.313 -2.188,-0.828 -1.664,-0.519 c -0.937,-0.313 -1.976,-0.633 -3.125,-0.731 l -2.086,-0.422 c -1.039,-0.211 -2.293,-0.41 -3.437,-0.519 -9.273,-1.039 -18.965,0.422 -25.941,4.48 -11.774,6.77 -21.149,23.86 -21.149,38.238 L 759.266,2774.48 801.664,2750 V 933.27 c 0,-10.211 5.109,-16.149 12.508,-16.149 1.039,0 1.976,0.098 3.016,0.418 l 0.523,0.102 2.187,0.621"
         style="fill:#26b6a6;fill-opacity:1;fill-rule:nonzero;stroke:none"
         id="path34" /><path
         d="m 800.676,914.602 c -7.387,0 -14.625,1.589 -20.156,4.808 -11.774,6.77 -21.149,23.86 -21.149,38.238 l -0.082,1413.312 42.375,-24.66 v -1413.03 0 0 0 0 0 c 0,-0.051 0,-0.09 0.004,-0.141 0.012,-2.82 0.414,-5.297 1.148,-7.43 v 0 c 0.008,-0.027 0.02,-0.051 0.028,-0.078 1.918,-5.461 6.035,-8.5 11.328,-8.5 0.812,0 1.562,0.059 2.351,0.238 0.707,0.11 1.434,0.282 2.172,0.493 l -1.922,-0.731 -1.664,-0.519 c -0.937,-0.313 -1.976,-0.633 -3.125,-0.731 l -2.086,-0.422 c -1.039,-0.211 -2.293,-0.41 -3.437,-0.519 -1.918,-0.219 -3.859,-0.328 -5.785,-0.328"
         style="fill:#a4e0cf;fill-opacity:1;fill-rule:nonzero;stroke:none"
         id="path36" /><path
         d="m 801.664,2750 -42.398,24.48 v -403.51 l 42.398,-24.67 V 2750"
         style="fill:#26b6a6;fill-opacity:1;fill-rule:nonzero;stroke:none"
         id="path38" /><path
         d="m 801.664,2346.3 v 0 l -42.375,24.66 -0.023,0.01 v 403.51 L 801.664,2750 v -403.7"
         style="fill:#19b19d;fill-opacity:1;fill-rule:nonzero;stroke:none"
         id="path40" /><path
         d="m 808.23,3039.42 c -4.062,-6.98 -6.566,-15 -6.566,-22.19 V 2750 l -42.398,24.48 v 267.13 c 0,0.94 0,1.77 0.105,2.71 0.203,1.87 0.52,3.75 0.938,5.62 1.14,4.69 3.125,9.59 5.625,13.96 l 42.296,-24.48"
         style="fill:#17282f;fill-opacity:1;fill-rule:nonzero;stroke:none"
         id="path42" /><path
         d="M 3298.4,4458.69 V 4338.14 L 1501.27,3300.61 c -12.4,-7.19 -22.5,-1.35 -22.5,13.03 v 45.63 c 0,14.38 -10.11,20.21 -22.61,13.02 L 908.871,3056.3 c -12.5,-7.19 -22.605,-24.69 -22.605,-39.07 v -45.64 c 0,-14.37 -10.11,-31.88 -22.504,-39.06 l -62.098,-35.84 v 120.54 c 0,14.38 10.109,31.88 22.508,39.07 L 3275.9,4471.71 c 12.39,7.19 22.5,1.35 22.5,-13.02"
         style="fill:#273e47;fill-opacity:1;fill-rule:nonzero;stroke:none"
         id="path44" /><path
         d="m 3298.51,2374.72 c 0,-14.38 -10.11,-31.88 -22.61,-39.06 L 824.172,920.25 c -12.399,-7.199 -22.508,-1.359 -22.508,13.02 v 1963.42 l 62.098,35.84 c 12.394,7.18 32.609,116.58 45.109,123.77 L 1447,3367.01 c 6.25,3.59 16.72,-14.8 27.17,-33.2 10.46,-18.4 20.9,-36.79 27.1,-33.2 L 3298.4,4338.14 v -146.69 l 0.11,-1816.73"
         style="fill:#26b6a6;fill-opacity:1;fill-rule:nonzero;stroke:none"
         id="path46" /><path
         d="m 810.094,917.832 c -3.317,1.156 -5.86,3.84 -7.25,7.789 -0.008,0.027 -0.02,0.051 -0.028,0.078 v 0 c -0.734,2.133 -1.136,4.61 -1.148,7.43 -0.004,0.051 -0.004,0.09 -0.004,0.141 0,-8.211 3.297,-13.629 8.43,-15.438 m 4.043,9.34 c -2.348,0 -2.473,5.078 -2.473,6.098 v 1822.5 l 2476.736,1429.91 0.11,-1810.96 c 0,-10.8 -8.23,-25.01 -17.61,-30.41 l -223.14,-128.82 41.03,141.44 -175.37,-46.2 c -17.76,25.5 -43.08,61.74 -67.58,96.34 l 276.6,159.7 c 11.96,6.9 21.65,23 21.65,35.95 0,8.98 -4.65,14.09 -11.48,14.09 -3.03,0 -6.49,-1.01 -10.17,-3.13 l -300.26,-173.36 c -8.7,12.16 -16.88,23.49 -24.1,33.35 l 324.36,187.26 c 11.96,6.91 21.65,23.01 21.65,35.96 0,8.97 -4.64,14.08 -11.48,14.08 -3.03,0 -6.49,-1 -10.17,-3.13 l -349.21,-201.61 c -10.87,12.76 -21.38,21.69 -33.4,27.98 l 382.61,220.89 c 11.96,6.9 21.65,23 21.65,35.96 0,8.97 -4.64,14.08 -11.48,14.08 -3.03,0 -6.49,-1.01 -10.17,-3.13 l -440.35,-254.24 c -4.08,0.3 -8.33,0.55 -12.78,0.76 v 0 0 l -25.07,2.63 c -0.32,0.37 -0.49,0.56 -0.49,0.56 l 0.3,35.19 c 15.29,-2.57 30.84,-4.9 43.64,-4.9 8.06,0 15.03,0.92 20.14,3.29 10.58,4.89 29.5,19.35 37.44,68.25 18.62,26.31 29.94,58.62 30.79,93.77 l 0.24,10.26 v 0 c -0.13,25.53 -5.35,49.77 -14.65,71.72 l 360.79,208.3 c 11.96,6.9 21.65,23 21.65,35.96 0,8.97 -4.64,14.08 -11.48,14.08 -3.03,0 -6.49,-1.01 -10.17,-3.13 L 2741.71,2864.7 c -8.25,11.43 -17.77,21.8 -28.35,30.88 l 409.08,236.19 c 11.96,6.9 21.65,23 21.65,35.95 0,8.97 -4.65,14.09 -11.48,14.09 -3.03,0 -6.49,-1.01 -10.17,-3.13 l -447.25,-258.22 c -17.11,8.13 -35.7,13.44 -55.24,15.36 l 502.49,290.11 c 11.96,6.91 21.65,23.01 21.65,35.96 0,8.97 -4.64,14.08 -11.48,14.08 -3.03,0 -6.49,-1 -10.17,-3.13 l -644.76,-372.25 c -3.88,6.86 -11,11.03 -18.73,11.03 -2.21,0 -4.47,-0.34 -6.72,-1.06 v 0 0 l 5.56,-21.45 -4.5,-2.6 c -3.14,1.67 -6.47,2.46 -9.77,2.46 -7.86,0 -15.48,-4.54 -19.5,-12.54 v 0 0 l 5.85,-3.44 -685.84,-395.97 c -11.95,-6.9 -21.65,-23 -21.65,-35.95 0,-8.97 4.65,-14.08 11.48,-14.08 3.03,0 6.49,1.01 10.17,3.13 l 704.3,406.62 c -8.42,-17.53 -14.17,-36.69 -16.68,-56.89 l -687.62,-397 c -11.95,-6.9 -21.65,-23 -21.65,-35.95 0,-8.97 4.65,-14.08 11.48,-14.08 3.03,0 6.49,1.01 10.17,3.13 l 687.23,396.77 c 1.62,-14.47 5.04,-28.37 10.03,-41.47 l -697.26,-402.56 c -11.95,-6.91 -21.65,-23 -21.65,-35.95 0,-8.98 4.65,-14.08 11.48,-14.08 3.03,0 6.49,1 10.17,3.12 l 716.22,413.51 c 7.44,-10.69 16.09,-20.44 25.73,-29 l -741.95,-431.77 c -11.95,-6.9 -21.65,-23 -21.65,-35.95 0,-8.97 4.65,-14.08 11.48,-14.08 3.03,0 6.49,1.01 10.17,3.13 l 712.1,414.4 c -0.33,-2.8 -0.5,-5.68 -0.5,-8.64 v -24.75 c -3.18,-0.8 -6.05,-1.6 -8.49,-2.39 4.16,-10.2 6.88,-21.16 8.49,-32.47 v -31.82 l 1.79,-0.47 c -0.3,-15.68 -2.11,-31.37 -4.69,-46.12 l -430.96,-248.82 c 12.61,40.01 5.93,63.45 -11.86,81.39 -15.17,15.28 -26.45,22.09 -34.83,22.09 -12.62,0 -18.68,-15.45 -21.57,-40.69 -3.54,-30.99 -12.68,-51.32 -12.68,-51.32 -2.69,12.97 -3.83,18.9 -7.15,25.34 -4.81,9.32 -12.06,12.01 -17.48,12.01 -2.01,0 -3.77,-0.37 -5.07,-0.91 -3.71,-1.55 0.88,-10.45 0.3,-26.71 -0.75,-20.84 -7.48,-32.35 -2.61,-54.48 1.82,-8.29 0.3,-16.93 -3.73,-24.39 -2.47,-4.57 -5.6,-9.62 -9.26,-15.04 l -151.8,-87.64 c -6.04,-3.49 -11.5,-9.32 -15.43,-15.91 -1.18,1.06 -2.37,2.13 -3.56,3.22 0.68,5.45 0.8,9.56 0.8,11.8 0,1.23 -0.04,1.89 -0.04,1.89 0,0 -70.84,65.15 -125.27,113.33 v 529.26 L 909.988,2251.1 907.984,1126.54 1600.53,1524.07 v 409 l 55.32,-39.01 c 4.39,2.51 8.5,5.12 12.35,7.81 39.22,-27.96 73.49,-52.28 81.37,-57.5 3,-1.99 6.08,-3.8 9.13,-5.42 4.36,-2.33 8.95,-3.9 13.61,-4.77 l -28.28,-16.33 c -11.95,-6.9 -21.65,-22.99 -21.65,-35.95 0,-8.97 4.65,-14.08 11.48,-14.08 3.03,0 6.49,1.01 10.17,3.13 l 730.89,421.97 0.46,-1.42 c -31.64,-64.93 -57.81,-97.13 -68.53,-149.89 1.88,-3.68 4.51,-7.36 7.81,-10.98 -10.9,-43.48 -14.85,-104.41 -14.84,-169.98 0,-6.34 0.03,-12.74 0.11,-19.16 L 819.156,928.891 c -2.691,-1.551 -4.402,-1.719 -5.019,-1.719 M 2260.63,2022.41 c -3.03,0 -6.49,-1 -10.17,-3.13 l -506.43,-295.59 c -11.95,-6.91 -21.65,-23 -21.65,-35.95 0,-8.98 4.65,-14.09 11.48,-14.09 3.03,0 6.49,1.01 10.17,3.13 l 506.43,295.59 c 11.95,6.91 21.65,23.01 21.65,35.96 0,8.97 -4.65,14.08 -11.48,14.08 m 871.98,1347.73 c -3.03,0 -6.49,-1.01 -10.17,-3.13 L 1744.03,2571.19 c -11.95,-6.91 -21.65,-23 -21.65,-35.95 0,-8.98 4.65,-14.09 11.48,-14.09 3.03,0 6.49,1.01 10.17,3.13 l 1378.41,795.82 c 11.96,6.9 21.65,23 21.65,35.96 0,8.97 -4.64,14.08 -11.48,14.08 m -532.99,-168.03 c -4.16,0 -8.88,-1.37 -13.89,-4.26 L 1752.71,2716.9 c -16.74,-9.66 -30.32,-33.17 -30.32,-52.5 l -0.01,-3.48 c 0,-13.68 6.77,-21.56 16.64,-21.56 4.08,0 8.7,1.35 13.58,4.2 l 833.22,486.36 c 16.69,9.75 30.23,32.82 30.23,51.54 0,13.12 -6.68,20.65 -16.43,20.65 m -764.74,-1331.8 c 18.67,23.53 39.54,52.76 59.71,81.73 l 554.57,320.18 12.93,-39.8 -627.21,-362.11 m -61.84,79.81 c -5.1,4.62 -11,9.95 -17.5,15.81 l 67.1,38.74 c -17.1,-19.08 -34.4,-37.89 -49.6,-54.55 m 175.53,79.99 c 3.57,5.09 6.97,9.88 10.16,14.31 12.74,17.67 25.17,40.26 34.89,58.97 l 445.72,257.33 c -5.37,-17.17 -9.84,-27.96 -9.84,-27.96 l 6.83,-21.04 -487.76,-281.61 m 823.2,89.86 c -3.24,45.99 -8.55,101.47 -16.91,142.56 7.98,15.56 14.28,29.12 19.18,41.08 l 33.9,-34.95 -36.17,-148.69"
         style="fill:#ddf3ed;fill-opacity:1;fill-rule:nonzero;stroke:none"
         id="path48" /><path
         d="m 814.137,917.172 c -1.442,0 -2.797,0.219 -4.043,0.66 1.246,-0.441 2.597,-0.66 4.043,-0.66 0.773,0 1.578,0.058 2.402,0.187 -0.004,0 -0.012,0 -0.016,0 -0.82,-0.129 -1.617,-0.187 -2.386,-0.187 m 4.558,0.68 0.016,0.007 c 1.75,0.5 3.578,1.289 5.461,2.391 l 1575.918,909.79 v 0 L 824.172,920.25 c -1.887,-1.102 -3.723,-1.891 -5.477,-2.398"
         style="fill:#1d9b8f;fill-opacity:1;fill-rule:nonzero;stroke:none"
         id="path50" /><path
         d="m 816.523,917.359 c 0.004,0 0.012,0 0.016,0 0.707,0.121 1.434,0.282 2.172,0.5 l -0.016,-0.007 c -0.738,-0.211 -1.465,-0.383 -2.172,-0.493"
         style="fill:#60c9b9;fill-opacity:1;fill-rule:nonzero;stroke:none"
         id="path52" /><path
         d="m 814.137,917.172 c -1.446,0 -2.797,0.219 -4.043,0.66 -5.133,1.809 -8.43,7.227 -8.43,15.438 v 0 0 V 2896.69 2750 l 10,5.77 V 933.27 c 0,-1.02 0.125,-6.098 2.473,-6.098 0.617,0 2.328,0.168 5.019,1.719 L 2399.93,1841.49 c 0.04,-3.82 0.09,-7.61 0.16,-11.45 L 824.172,920.25 c -1.883,-1.102 -3.711,-1.891 -5.461,-2.391 -0.738,-0.218 -1.465,-0.379 -2.172,-0.5 -0.824,-0.129 -1.629,-0.187 -2.402,-0.187 m 2229.603,1284.458 4.02,13.86 223.14,128.82 c 9.38,5.4 17.61,19.61 17.61,30.41 l -0.11,1810.96 10,5.77 0.11,-1816.73 c 0,-14.38 -10.11,-31.88 -22.61,-39.06 l -232.16,-134.03"
         style="fill:#78d1c5;fill-opacity:1;fill-rule:nonzero;stroke:none"
         id="path54" /><path
         d="M 1520.07,3311.47 3298.4,4338.14 1521.08,3312.03 c -0.35,-0.2 -0.68,-0.39 -1.01,-0.56"
         style="fill:#78d1c5;fill-opacity:1;fill-rule:nonzero;stroke:none"
         id="path56" /><path
         d="M 801.668,2750 V 2346.3 L 3298.4,3787.59 v 403.86 L 801.668,2750"
         style="fill:#26b6a6;fill-opacity:1;fill-rule:nonzero;stroke:none"
         id="path58" /><path
         d="M 3298.4,4338.14 V 4191.45 L 801.664,2750 v 146.69 l 46.375,26.86 c 12.402,7.18 16.566,18.12 22.504,39.06 l 15.723,54.62 c 4.961,18.96 10.105,31.88 22.605,39.07 L 1447,3367.01 c 12.5,7.19 22.26,7.98 31.77,-7.74 l 19.29,-35.02 c 7.08,-12.22 10.62,-19.41 23.02,-12.22 L 3298.4,4338.14"
         style="fill:#ededeb;fill-opacity:1;fill-rule:nonzero;stroke:none"
         id="path60" /><path
         d="m 3192.65,4383.09 c 15.67,9.05 28.38,1.71 28.38,-16.39 0,-18.1 -12.71,-40.11 -28.38,-49.16 -15.69,-9.05 -28.39,-1.71 -28.39,16.39 0,18.1 12.7,40.11 28.39,49.16"
         style="fill:#26b6a6;fill-opacity:1;fill-rule:nonzero;stroke:none"
         id="path62" /><path
         d="m 3090.45,4324.17 c 15.68,9.05 28.39,1.72 28.39,-16.38 0,-18.11 -12.71,-40.12 -28.39,-49.17 -15.67,-9.05 -28.38,-1.71 -28.38,16.39 0,18.1 12.71,40.11 28.38,49.16"
         style="fill:#26b6a6;fill-opacity:1;fill-rule:nonzero;stroke:none"
         id="path64" /><path
         d="m 2988.26,4265.26 c 15.68,9.04 28.39,1.7 28.39,-16.4 0,-18.1 -12.71,-40.11 -28.39,-49.16 -15.67,-9.05 -28.38,-1.71 -28.38,16.39 0,18.1 12.71,40.11 28.38,49.17"
         style="fill:#26b6a6;fill-opacity:1;fill-rule:nonzero;stroke:none"
         id="path66" /><path
         d="m 881.355,2837.75 h -1.878 l -19.211,14.77 -0.055,0.07 -0.512,0.78 -0.156,0.26 -0.25,1.63 0.25,1.91 0.156,0.44 0.512,1.37 0.055,0.14 19.211,36.96 c 0.816,1.56 1.929,2.46 2.882,2.46 0.426,0 0.817,-0.18 1.137,-0.56 1.039,-1.23 0.918,-4.07 -0.269,-6.35 l -13.5,-25.96 35.41,20.44 c 0.355,0.2 0.691,0.3 1.004,0.3 1.078,0 1.843,-1.16 1.843,-3.04 0,-2.42 -1.269,-5.12 -2.847,-6.03 l -35.41,-20.44 13.5,-10.38 c 1.187,-0.91 1.308,-3.61 0.269,-6.04 -0.566,-1.31 -1.351,-2.27 -2.141,-2.73"
         style="fill:#899ea2;fill-opacity:1;fill-rule:nonzero;stroke:none"
         id="path68" /><path
         d="m 958.5,2882.29 -2.141,0.26 c -1.043,1.23 -0.918,4.07 0.27,6.34 l 13.5,25.97 -35.41,-20.44 c -0.356,-0.21 -0.692,-0.3 -1.004,-0.3 -1.082,0 -1.848,1.16 -1.848,3.04 0,2.42 1.274,5.12 2.852,6.03 l 35.41,20.44 -13.5,10.38 c -1.188,0.91 -1.313,3.61 -0.27,6.04 0.801,1.88 2.067,3.03 3.145,3.03 0.312,0 0.605,-0.1 0.875,-0.3 l 19.207,-14.77 0.055,-0.08 0.515,-0.77 0.157,-0.27 0.25,-1.62 -0.25,-1.91 -0.157,-0.45 -0.515,-1.36 -0.055,-0.14 -19.207,-36.96 c -0.543,-1.04 -1.207,-1.78 -1.879,-2.16"
         style="fill:#899ea2;fill-opacity:1;fill-rule:nonzero;stroke:none"
         id="path70" /><path
         d="m 1025.92,2919.05 c -2.91,0 -5.64,1.07 -7.97,3.32 -8.77,8.44 -8.77,30.41 0,48.97 6.42,13.61 15.78,21.58 23.79,21.58 0.43,0 0.85,-0.03 1.26,-0.07 l 4.86,11.86 c 0.51,1.25 1.29,1.91 1.93,1.91 0.54,0 0.99,-0.48 1.09,-1.46 l 2.11,-20.7 c 0.15,-1.46 -0.6,-3.3 -1.61,-3.96 l -14.44,-9.42 c -0.25,-0.17 -0.49,-0.24 -0.7,-0.24 -1.03,0 -1.49,1.81 -0.71,3.74 l 3.66,8.94 c -5.85,-0.35 -12.56,-6.19 -17.22,-16.05 -6.54,-13.86 -6.54,-30.28 0,-36.57 1.75,-1.69 3.78,-2.48 5.95,-2.48 5.98,0 13,6.03 17.8,16.19 0.82,1.72 2.01,2.74 3.02,2.74 0.37,0 0.72,-0.13 1.01,-0.42 1.12,-1.07 1.12,-3.84 0,-6.2 -4.38,-9.28 -10.14,-15.98 -15.9,-19.31 -2.69,-1.55 -5.38,-2.37 -7.93,-2.37"
         style="fill:#899ea2;fill-opacity:1;fill-rule:nonzero;stroke:none"
         id="path72" /><path
         d="m 1408.91,3257.26 c -0.51,0 -0.98,0.18 -1.39,0.58 -1.53,1.46 -1.53,5.27 0,8.5 l 12.91,27.33 -12.91,12.42 c -1.53,1.47 -1.53,5.28 0,8.51 1.12,2.37 2.74,3.77 4.13,3.77 0.51,0 0.99,-0.19 1.39,-0.58 l 12.91,-12.42 12.91,27.32 c 1.11,2.37 2.74,3.77 4.13,3.77 0.51,0 0.98,-0.19 1.39,-0.58 1.53,-1.46 1.53,-5.27 0,-8.51 l -12.9,-27.32 12.9,-12.43 c 1.53,-1.46 1.53,-5.27 0,-8.5 -0.76,-1.61 -1.76,-2.78 -2.76,-3.36 -0.47,-0.27 -0.93,-0.41 -1.37,-0.41 -0.51,0 -0.98,0.19 -1.39,0.58 l -12.91,12.43 -12.91,-27.33 c -0.76,-1.62 -1.76,-2.78 -2.76,-3.36 -0.47,-0.27 -0.93,-0.41 -1.37,-0.41"
         style="fill:#899ea2;fill-opacity:1;fill-rule:nonzero;stroke:none"
         id="path74" /><path
         d="m 1097.87,2971.57 v 45.64 c 0,14.39 10.1,31.88 22.56,39.07 l 2028.5,1170.55 c 12.46,7.19 22.56,1.36 22.56,-13.03 v -45.63 c -0.01,-14.39 -10.11,-31.88 -22.56,-39.08 L 1120.43,2958.54 c -12.46,-7.19 -22.56,-1.36 -22.56,13.03"
         style="fill:#ffffff;fill-opacity:1;fill-rule:nonzero;stroke:none"
         id="path76" /><path
         d="m 3110.84,4162.86 9.14,-6.6 c 1.51,-1.1 2.22,-3.05 1.94,-5.37 l -1.87,-15.59 9.89,12.57 c 1.41,1.81 3.23,2.71 5.08,2.5 l 11.86,-1.47 0.42,2.4 -2.27,16.28 c -0.22,1.65 0.17,3.57 1.05,5.26 l 9.58,17.96 -10.96,-4.21 c -2.34,-0.88 -4.66,0.05 -5.7,2.29 l -4.93,10.48 -0.06,-0.17 -5.91,-19.43 c -0.57,-1.83 -1.64,-3.46 -2.97,-4.47 l -13.24,-10.22 z m 7.39,-36.33 -1.66,0.32 c -1.61,0.67 -3.2,2.56 -2.81,5.85 l 2.26,18.9 0.04,0.15 -9.15,6.61 c -1.26,0.91 -1.98,2.43 -2.01,4.27 -0.05,2.7 1.3,5.57 3.35,7.15 l 13.25,10.21 0.91,1.51 5.92,19.42 c 0.97,3.19 3.32,5.46 5.85,5.64 1.81,0.15 3.47,-0.85 4.29,-2.58 v -0.01 l 5.34,-11.35 12,4.6 c 1.84,0.7 3.72,0.26 4.94,-1.12 1.67,-1.89 1.74,-5.13 0.17,-8.06 l -9.58,-17.99 -0.42,-1.66 2.26,-16.27 c 0.4,-2.87 -1,-5.75 -2.56,-7.34 -1.33,-1.34 -2.91,-1.98 -4.47,-1.78 l -11.85,1.47 -11.53,-15.41 c -1.45,-1.86 -3.11,-2.53 -4.54,-2.53"
         style="fill:#dadbd8;fill-opacity:1;fill-rule:nonzero;stroke:none"
         id="path78" /><path
         d="m 3198.09,4232.4 c -2.72,0 -5.34,1.4 -6.78,3.9 -2.16,3.74 -0.88,8.52 2.85,10.67 l 63.49,36.66 c 1.23,0.71 2.58,1.05 3.9,1.05 2.7,0 5.32,-1.41 6.77,-3.91 2.15,-3.73 0.87,-8.52 -2.86,-10.67 l -63.48,-36.65 c -1.23,-0.72 -2.57,-1.05 -3.89,-1.05"
         style="fill:#899ea2;fill-opacity:1;fill-rule:nonzero;stroke:none"
         id="path80" /><path
         d="m 3198.09,4195.73 c -2.72,0 -5.34,1.4 -6.78,3.91 -2.16,3.74 -0.88,8.52 2.85,10.67 l 63.49,36.65 c 1.23,0.72 2.58,1.06 3.9,1.06 2.7,0 5.32,-1.41 6.77,-3.91 2.15,-3.74 0.87,-8.52 -2.86,-10.68 l -63.48,-36.65 c -1.23,-0.71 -2.57,-1.05 -3.89,-1.05"
         style="fill:#899ea2;fill-opacity:1;fill-rule:nonzero;stroke:none"
         id="path82" /><path
         d="m 3198.09,4159.07 c -2.72,0 -5.34,1.4 -6.78,3.91 -2.16,3.73 -0.88,8.51 2.85,10.67 l 63.49,36.65 c 1.23,0.72 2.58,1.06 3.9,1.06 2.7,0 5.32,-1.41 6.77,-3.92 2.15,-3.74 0.87,-8.51 -2.86,-10.67 l -63.48,-36.65 c -1.23,-0.71 -2.57,-1.05 -3.89,-1.05"
         style="fill:#899ea2;fill-opacity:1;fill-rule:nonzero;stroke:none"
         id="path84" /><path
         d="M 801.668,2896.69 V 2750 l -42.402,24.48 v 146.59 l 42.402,-24.38"
         style="fill:#dadbd8;fill-opacity:1;fill-rule:nonzero;stroke:none"
         id="path86" /><g
         id="g88"
         transform="scale(10)"><text
           transform="matrix(0.60816453,0.35112344,0,-0.93632918,250.9,343.953)"
           style="font-variant:normal;font-weight:500;font-size:25.9489px;font-family:Rubik;-inkscape-font-specification:Rubik-Medium;writing-mode:lr-tb;fill:#33535f;fill-opacity:1;fill-rule:nonzero;stroke:none"
           id="text92"><tspan
             x="0 18.267094 34.329453 49.76796 65.622726 77.01429 82.929871 98.784645"
             y="0"
             sodipodi:role="line"
             id="tspan90">About us</tspan></text></g><path
         d="m 907.984,1126.54 2.004,1124.56 690.542,398.68 v -529.26 c -23.55,20.85 -44.03,38.53 -54.36,46.37 -23.4,17.76 -47.01,21.41 -62.48,21.41 -10.81,0 -17.64,-1.78 -17.64,-1.78 v 0 0 0 l -105.58,-4.65 -109.33,-15.01 c -0.01,0.01 -0.01,0.01 -0.01,0.02 -0.46,0 -0.92,0 -1.38,0 -44.19,0 -84.49,-8.33 -116.61,-70.19 -31.12,-59.94 -55.05,-186.92 -67.13,-228.37 v 0 0 c 0,0 2.12,-1.25 5.96,-3.31 -5.01,-26.89 -9.44,-55.67 -13.26,-86.38 -6.15,-49.41 -6.81,-145.92 -10.2,-228.24 -1.31,-31.62 -0.97,-71.74 1.73,-96.55 9.36,-86.12 34.57,-123.01 69.55,-130.67 10.42,-2.29 19,-3.38 25.95,-3.38 30.28,0 29.45,20.8 13.06,54.59 -14.87,30.66 -12.36,68.76 -12.36,68.76 9.91,-10.31 17.92,-18.25 24.59,-22.16 4.46,-2.62 8.56,-3.62 12.15,-3.62 7.08,0 12.19,3.91 14.21,7.05 2.38,3.67 -6.84,9.08 -15.77,24.39 -11.4,19.55 -16.56,34.52 -33.53,51.85 -6.33,6.46 -10.4,15.02 -11,24.22 -3.41,51.96 9.72,157.67 21.04,218.47 5.52,29.63 12.8,59.39 20.76,87.66 3.45,-0.24 6.9,-0.36 10.34,-0.36 0.72,0 1.43,0 2.15,0.02 l 12.8,44.4 0.5,-6.93 -1.23,-269.83 c 26.78,-30.34 97.78,-45.02 173.65,-45.02 81.91,0 169.51,17.1 213.37,50.08 0,0 -5.45,199.91 -10.55,344.24 l 20.61,-14.53 v -409 L 907.984,1126.54"
         style="fill:#bfe9e0;fill-opacity:1;fill-rule:nonzero;stroke:none"
         id="path94" /><path
         d="m 1739.02,2639.36 c -9.87,0 -16.64,7.88 -16.64,21.56 l 0.01,3.48 c 0,19.33 13.58,42.84 30.32,52.5 l 833.02,480.95 c 5.01,2.89 9.73,4.26 13.89,4.26 9.75,0 16.43,-7.53 16.43,-20.65 0,-18.72 -13.54,-41.79 -30.23,-51.54 L 1752.6,2643.56 c -4.88,-2.85 -9.5,-4.2 -13.58,-4.2"
         style="fill:#b2e5dc;fill-opacity:1;fill-rule:nonzero;stroke:none"
         id="path96" /><path
         d="m 1733.86,2521.15 c -6.83,0 -11.48,5.11 -11.48,14.09 0,12.95 9.7,29.04 21.65,35.95 l 1378.41,795.82 c 3.68,2.12 7.14,3.13 10.17,3.13 6.84,0 11.48,-5.11 11.48,-14.08 0,-12.96 -9.69,-29.06 -21.65,-35.96 L 1744.03,2524.28 c -3.68,-2.12 -7.14,-3.13 -10.17,-3.13"
         style="fill:#bfe9e0;fill-opacity:1;fill-rule:nonzero;stroke:none"
         id="path98" /><path
         d="m 1733.86,2426.99 c -6.83,0 -11.48,5.11 -11.48,14.08 0,12.95 9.7,29.05 21.65,35.95 l 685.84,395.97 29.1,-17.14 c -3.91,-6.12 -7.46,-12.49 -10.64,-19.11 l -704.3,-406.62 c -3.68,-2.12 -7.14,-3.13 -10.17,-3.13 m 731.79,438.62 c -0.01,0.21 -0.01,0.42 -0.02,0.64 0.24,0.1 0.49,0.2 0.73,0.31 -0.24,-0.31 -0.48,-0.64 -0.71,-0.95 m -5.76,15.4 c -1.63,1.95 -3.51,3.7 -5.77,5.03 -0.27,0.16 -0.55,0.32 -0.83,0.47 l 4.5,2.6 2.1,-8.1 m 19.98,1.64 c 0.55,2.06 0.84,4.21 0.83,6.38 0,1.98 -0.25,3.98 -0.77,5.97 -0.52,2.01 -1.29,3.89 -2.25,5.59 l 644.76,372.25 c 3.68,2.13 7.14,3.13 10.17,3.13 6.84,0 11.48,-5.11 11.48,-14.08 0,-12.95 -9.69,-29.05 -21.65,-35.96 l -502.49,-290.11 c -5.41,0.53 -10.89,0.81 -16.43,0.81 -0.31,0 -0.62,-0.01 -0.92,-0.01 -48.01,-0.26 -91.46,-20.88 -122.73,-53.97"
         style="fill:#bfe9e0;fill-opacity:1;fill-rule:nonzero;stroke:none"
         id="path100" /><path
         d="m 1733.86,2332.82 c -6.83,0 -11.48,5.11 -11.48,14.08 0,12.95 9.7,29.05 21.65,35.95 l 687.62,397 c -0.94,-7.61 -1.43,-15.38 -1.43,-23.26 0,-0.29 0,-0.58 0.01,-0.87 -0.03,-1.25 -0.04,-2.49 -0.04,-3.73 0,-6.52 0.36,-12.95 1.07,-19.27 l -687.23,-396.77 c -3.68,-2.12 -7.14,-3.13 -10.17,-3.13 m 979.5,562.76 c -11.56,9.93 -24.38,18.32 -38.17,24.88 l 447.25,258.22 c 3.68,2.12 7.14,3.13 10.17,3.13 6.83,0 11.48,-5.12 11.48,-14.09 0,-12.95 -9.69,-29.05 -21.65,-35.95 l -409.08,-236.19"
         style="fill:#bfe9e0;fill-opacity:1;fill-rule:nonzero;stroke:none"
         id="path102" /><path
         d="m 1733.86,2238.66 c -6.83,0 -11.48,5.1 -11.48,14.08 0,12.95 9.7,29.04 21.65,35.95 l 697.26,402.56 c 4.89,-12.85 11.28,-24.91 18.96,-35.96 l -716.22,-413.51 c -3.68,-2.12 -7.14,-3.12 -10.17,-3.12 m 1027.79,590.64 c -5.36,12.63 -12.07,24.49 -19.94,35.4 l 380.73,219.81 c 3.68,2.12 7.14,3.13 10.17,3.13 6.84,0 11.48,-5.11 11.48,-14.08 0,-12.96 -9.69,-29.06 -21.65,-35.96 l -360.79,-208.3"
         style="fill:#bfe9e0;fill-opacity:1;fill-rule:nonzero;stroke:none"
         id="path104" /><path
         d="m 1733.86,2144.49 c -6.83,0 -11.48,5.11 -11.48,14.08 0,12.95 9.7,29.05 21.65,35.95 l 741.95,431.77 c 5.74,-5.09 11.84,-9.77 18.25,-13.98 -25.94,-4.04 -44.84,-22.83 -48.1,-50.29 l -712.1,-414.4 c -3.68,-2.12 -7.14,-3.13 -10.17,-3.13"
         style="fill:#bfe9e0;fill-opacity:1;fill-rule:nonzero;stroke:none"
         id="path106" /><path
         d="m 1755.54,1965.93 c -8.16,7.38 -17.27,15.61 -26.94,24.35 3.93,6.59 9.39,12.42 15.43,15.91 l 151.8,87.64 c -16.72,-24.73 -44.67,-57.33 -73.19,-89.16 l -67.1,-38.74 m 238.08,137.46 c 3.11,5.97 5.94,11.55 8.42,16.44 9,17.75 15.47,33.18 19.73,46.71 l 430.96,248.82 c -3.66,-20.99 -8.84,-40.1 -13.39,-54.64 l -445.72,-257.33 m 746.21,430.82 c -15.42,8.06 -33.34,11.75 -57.74,13.56 l 440.35,254.24 c 3.68,2.12 7.14,3.13 10.17,3.13 6.84,0 11.48,-5.11 11.48,-14.08 0,-12.96 -9.69,-29.06 -21.65,-35.96 l -382.61,-220.89"
         style="fill:#bfe9e0;fill-opacity:1;fill-rule:nonzero;stroke:none"
         id="path108" /><path
         d="m 1894.59,1952.04 c 19.54,28.08 38.42,55.91 53.98,78.07 l 487.76,281.61 12.83,-39.5 -554.57,-320.18 m 903.49,521.63 c -10.93,14.91 -19.65,26.43 -24.57,32.24 -0.1,0.11 -0.18,0.21 -0.28,0.32 l 349.21,201.61 c 3.68,2.13 7.14,3.13 10.17,3.13 6.84,0 11.48,-5.11 11.48,-14.08 0,-12.95 -9.69,-29.05 -21.65,-35.96 l -324.36,-187.26"
         style="fill:#bfe9e0;fill-opacity:1;fill-rule:nonzero;stroke:none"
         id="path110" /><path
         d="m 1733.86,1767.82 c -6.83,0 -11.48,5.11 -11.48,14.08 0,12.96 9.7,29.05 21.65,35.95 l 28.28,16.33 c 2.9,-0.54 5.84,-0.8 8.76,-0.8 13.92,0 27.67,6.01 37.32,17.02 5.23,5.98 10.76,12.68 16.49,19.91 l 627.21,362.11 12.83,-39.5 -730.89,-421.97 c -3.68,-2.12 -7.14,-3.13 -10.17,-3.13 m 1111.98,639.25 c -8.08,11.41 -16.06,22.65 -23.66,33.25 l 300.26,173.36 c 3.68,2.12 7.14,3.13 10.17,3.13 6.83,0 11.48,-5.11 11.48,-14.09 0,-12.95 -9.69,-29.05 -21.65,-35.95 l -276.6,-159.7"
         style="fill:#bfe9e0;fill-opacity:1;fill-rule:nonzero;stroke:none"
         id="path112" /><path
         d="m 1733.86,1673.65 c -6.83,0 -11.48,5.11 -11.48,14.09 0,12.95 9.7,29.04 21.65,35.95 l 506.43,295.59 c 3.68,2.13 7.14,3.13 10.17,3.13 6.83,0 11.48,-5.11 11.48,-14.08 0,-12.95 -9.7,-29.05 -21.65,-35.96 l -506.43,-295.59 c -3.68,-2.12 -7.14,-3.13 -10.17,-3.13"
         style="fill:#bfe9e0;fill-opacity:1;fill-rule:nonzero;stroke:none"
         id="path114" /><path
         d="m 3585.99,2264.2 c 73.27,237.83 144.59,394.46 71.94,442.95 -67.67,-12.53 -97.98,-46 -112.35,-135.2 -15.09,-93.57 -46.45,-223.9 -64.75,-299.17 -14.61,-60.09 -43.12,-135.64 -67.55,-181.63 -4.32,-8.14 -11.55,-14.29 -19.97,-17.58 -22.58,-8.84 -33.43,-20.38 -51.84,-33.54 -14.43,-10.3 -25.05,-11.45 -24.39,-15.77 0.84,-5.57 7.35,-15.6 22.64,-13.95 7.68,0.83 18.25,4.79 31.51,10.13 0,0 -13.34,-35.78 -39.47,-57.64 -35.42,-29.62 -30.13,-59.25 26.9,-62.71 20.42,-1.24 67.76,17.39 111.61,92.09 12.63,21.53 27.3,56.76 39.08,86.13 30.67,76.47 61.98,138.29 76.64,185.89"
         style="fill:#f6879f;fill-opacity:1;fill-rule:nonzero;stroke:none"
         id="path116" /><path
         d="m 3670.87,2709.97 c 0,0 -56.39,2.94 -90.55,-34.73 -34.15,-37.68 -74.07,-262.91 -74.07,-262.91 0,0 37.43,-51.44 136.08,-30.38 l 28.54,328.02"
         style="fill:#26b6a6;fill-opacity:1;fill-rule:nonzero;stroke:none"
         id="path118" /><path
         d="m 3569.27,2379.26 c -44.72,7.93 -63.02,33.07 -63.02,33.07 0,0 39.92,225.23 74.07,262.91 29.55,32.59 75.74,34.79 87.66,34.79 1.86,0 2.89,-0.06 2.89,-0.06 v 0 c -72.68,-13.16 -90.53,-56.92 -94.33,-138.68 -2.12,-45.69 -4.77,-118.54 -7.27,-192.03"
         style="fill:#06ab91;fill-opacity:1;fill-rule:nonzero;stroke:none"
         id="path120" /><path
         d="m 3934.71,977.359 h -75.72 v 135.001 h 75.72 V 977.359"
         style="fill:#f6879f;fill-opacity:1;fill-rule:nonzero;stroke:none"
         id="path122" /><path
         d="m 3672.18,1119.57 -75.68,-2.71 -3.78,142.87 79.46,2.71 v -142.87"
         style="fill:#f6879f;fill-opacity:1;fill-rule:nonzero;stroke:none"
         id="path124" /><path
         d="m 3945.36,2281.21 c 0,-75.31 -11.08,-681.35 -11.08,-681.35 1.76,-21.67 21.27,-61.62 17.04,-144.85 -5.73,-113.06 -13.38,-410.15 -13.38,-410.15 0,0 -36.76,-22.37 -84.31,-1.73 0,0 -71.61,411.49 -85.18,523.53 -11.84,97.79 -31.93,426.99 -31.93,426.99 l -41.04,-382.79 c 0,0 13.95,-58.31 9.38,-125.33 -3.54,-51.82 -27.89,-321.71 -27.89,-321.71 0,0 -35.64,-25.19 -87.42,-6.97 0,0 -43.06,406.47 -43.94,454.02 -1,54.2 25.17,671.15 25.17,671.15 l 374.58,-0.81"
         style="fill:#273e47;fill-opacity:1;fill-rule:nonzero;stroke:none"
         id="path126" /><path
         d="m 3858.99,1016.29 v 11.28 c -7.25,-3.29 -24.08,-70.179 -54.13,-98.718 -23.87,-22.692 -56.46,-48.903 -64.74,-74.192 -8.62,-26.308 45.37,-40.828 67.68,-36.711 25.93,4.781 70.86,23.789 82.14,41.422 11.28,17.617 16.56,43.617 25.73,56.539 9.16,12.922 30.3,27.34 35.26,42.289 2.71,8.211 -0.52,26.199 -4.34,41.403 -3.51,13.938 -7.31,29.268 -11.88,27.968 -0.02,-1.7 0,-8.6 0,-8.6 -5.5,-6.35 -20.71,-12.65 -37.86,-13.33 -11.08,-0.44 -37.95,1.85 -37.86,10.65"
         style="fill:#17282f;fill-opacity:1;fill-rule:nonzero;stroke:none"
         id="path128" /><path
         d="m 3595.7,1141.17 c -3.92,-0.14 -7.12,-5.91 -15.8,-15.69 -10.48,-11.82 -27.62,-24.56 -44.54,-33.38 -28.35,-14.78 -83.47,-37.52 -108.42,-49.23 -15.58,-7.31 -14.85,-26.92 1.25,-38.07 16.12,-11.159 55.01,-19.198 101.71,-8.32 25.44,5.92 58.56,30.4 79.52,29.08 20.97,-1.32 60.19,-1.01 75.67,10.1 15.47,11.11 9.28,34.83 4.9,55.22 -4.76,22.25 -10.73,56.94 -17.81,55.42 v -7.67 c -9.1,-14.35 -56.08,-20.2 -76.08,-9.63 l -0.4,12.17"
         style="fill:#17282f;fill-opacity:1;fill-rule:nonzero;stroke:none"
         id="path130" /><path
         d="m 3736.52,1993.65 c 0,0 -60.51,17.76 -105.44,62.97 0,0 20.35,-39.67 80.85,-76.6 l -12.94,-341.84 37.53,355.47"
         style="fill:#17282f;fill-opacity:1;fill-rule:nonzero;stroke:none"
         id="path132" /><path
         d="m 3905.97,2691.97 c 0,0 59.26,-5.42 55.05,-118.3 l -13.1,-179.81 0.36,-269.83 c -55.68,-63.09 -302.51,-58.47 -387.02,5.05 0,0 9.58,319.33 15.28,442.21 4.06,87.35 24.16,131.33 110.01,140.95 l 105.59,-4.64 113.83,-15.63"
         style="fill:#26b6a6;fill-opacity:1;fill-rule:nonzero;stroke:none"
         id="path134" /><path
         d="m 3728.18,2532.93 -35.73,5.64 31.67,-0.6 13.6,94.8 -9.54,-99.84"
         style="fill:#06ab91;fill-opacity:1;fill-rule:nonzero;stroke:none"
         id="path136" /><path
         d="m 3816.68,2946.35 c 0,-64.84 -50.47,-117.4 -112.72,-117.4 -62.26,0 -109.92,52.62 -112.73,117.4 -4.96,114.65 50.47,117.41 112.73,117.41 62.25,0 112.72,-52.57 112.72,-117.41"
         style="fill:#17282f;fill-opacity:1;fill-rule:nonzero;stroke:none"
         id="path138" /><path
         d="m 3880.93,2888.12 c 0,0 -17.29,-84.6 -24.22,-98.5 -6.93,-13.9 -21.26,-17.85 -21.26,-17.85 l 1.21,59.51 44.27,56.84"
         style="fill:#17282f;fill-opacity:1;fill-rule:nonzero;stroke:none"
         id="path140" /><path
         d="m 3859.23,3009.32 c 0,0 12.4,3.1 25.57,-17.47 11.28,-17.64 13.85,-57.26 -3.87,-103.73 l -32.57,-3.89 10.87,125.09"
         style="fill:#17282f;fill-opacity:1;fill-rule:nonzero;stroke:none"
         id="path142" /><path
         d="m 3838.59,2884.2 c 6.54,-4.06 15.85,9 23.91,17.78 8.05,8.77 34.34,20.77 47.45,-8.01 13.37,-29.33 -11.57,-68.09 -32.27,-74.86 -35.67,-11.66 -41.02,12.17 -41.02,12.17 l -2.72,-134 c -47.36,-73.25 -154.62,-70.6 -116.06,3.54 l 0.11,40.78 c 0,0 -32.33,-5.1 -48.09,-2.57 -26.23,4.23 -42.73,25.79 -50.69,55.36 -12.78,47.5 -17.64,85.85 -6.79,179.27 11.89,102.39 126.23,103.46 187.97,62.98 61.75,-40.48 38.2,-152.44 38.2,-152.44"
         style="fill:#f6879f;fill-opacity:1;fill-rule:nonzero;stroke:none"
         id="path144" /><path
         d="m 3834.54,2727.32 c 0,0 -16.66,-36.02 -46.38,-58.11 -27.31,-20.3 -56.1,-23.85 -56.1,-23.85 0,0 27.77,-18.4 39.59,-44.45 11.81,-26.05 95.13,45.66 94.38,96.54 0,0 -13.08,51.11 -30.99,54.39 l -0.5,-24.52"
         style="fill:#17282f;fill-opacity:1;fill-rule:nonzero;stroke:none"
         id="path146" /><path
         d="m 3732.06,2645.36 c 0,0 -25.69,12.77 -14.18,55.46 l 0.11,40.78 -11.26,-1.5 c -8.76,-7.9 -22.56,-26.47 -27.07,-46.9 -2.58,-11.67 -8.92,-70.84 2.37,-82.6 10.28,-10.7 27,31.58 50.03,34.76"
         style="fill:#17282f;fill-opacity:1;fill-rule:nonzero;stroke:none"
         id="path148" /><path
         d="m 3794.77,2995.84 c 2.97,0.36 6.1,0.66 8.82,-0.58 9.69,-4.4 11.77,-34.53 13.48,-43.24 5.73,-29.33 10.49,-79.04 21.52,-79.26 3.3,-0.07 15.78,21.51 23.91,29.22 11.26,10.67 -3.27,107.34 -3.27,107.34 0,0 10.82,24.03 -10.87,48.89 -20.26,23.24 -52.14,28.37 -81.25,29.98 -34.3,1.89 -69.13,-0.71 -102.92,6.8 -10.74,2.38 -21.3,5.78 -32.25,6.91 -1.01,0.11 -2.14,0.16 -2.94,-0.49 -1.1,-0.9 -0.94,-2.6 -0.65,-4 2.1,-10.12 5.71,-19.93 10.69,-28.99 -20.11,1.6 -40.04,5.52 -59.26,11.65 -1.11,0.36 -2.29,0.71 -3.38,0.37 -2.27,-0.72 -2.66,-3.72 -2.53,-6.09 1.37,-24.28 12.87,-60.81 32.57,-75.08 15.39,-11.15 39.54,-17.96 58.51,-18.45 53.03,-1.37 85.95,9.83 129.82,15.02"
         style="fill:#17282f;fill-opacity:1;fill-rule:nonzero;stroke:none"
         id="path150" /><path
         d="m 3859.17,3004.22 39.48,22.08 c -5.6,11.78 -18.98,16.39 -29.89,10.29 -10.9,-6.1 -15.19,-20.59 -9.59,-32.37"
         style="fill:#17282f;fill-opacity:1;fill-rule:nonzero;stroke:none"
         id="path152" /><path
         d="m 3717.98,2741.6 c 0,0 58.56,12.29 79.03,23.63 13.7,7.58 24.98,20.73 28.3,29.16 0,0 -3.83,-18.1 -16.08,-34.4 -14.97,-19.93 -91.24,-34.61 -91.24,-34.61 l -0.01,16.22"
         style="fill:#f47089;fill-opacity:1;fill-rule:nonzero;stroke:none"
         id="path154" /><path
         d="m 3732.06,2899.45 c 0,-7.02 5.26,-12.69 11.73,-12.67 6.48,0.02 11.74,5.72 11.74,12.74 0,7.01 -5.26,12.68 -11.74,12.66 -6.47,-0.02 -11.73,-5.72 -11.73,-12.73"
         style="fill:#17282f;fill-opacity:1;fill-rule:nonzero;stroke:none"
         id="path156" /><path
         d="m 3750.9,2950.05 25.11,-14.43 c 3.7,7.51 1.08,16.83 -5.85,20.81 -6.94,3.99 -15.56,1.13 -19.26,-6.38"
         style="fill:#17282f;fill-opacity:1;fill-rule:nonzero;stroke:none"
         id="path158" /><path
         d="m 3723.29,2815.02 -26.79,-10.47 c 2.65,-8 10.8,-12.13 18.2,-9.25 7.39,2.9 11.24,11.73 8.59,19.72"
         style="fill:#f47089;fill-opacity:1;fill-rule:nonzero;stroke:none"
         id="path160" /><path
         d="m 3624.41,2939.29 22.9,18.37 c -4.67,6.82 -13.59,8.24 -19.91,3.18 -6.32,-5.07 -7.65,-14.72 -2.99,-21.55"
         style="fill:#17282f;fill-opacity:1;fill-rule:nonzero;stroke:none"
         id="path162" /><path
         d="m 3634.46,2902.93 c 0,-7.02 5.26,-12.68 11.74,-12.66 6.49,0.01 11.73,5.71 11.73,12.72 0,7.02 -5.24,12.69 -11.73,12.67 -6.48,-0.02 -11.74,-5.72 -11.74,-12.73"
         style="fill:#17282f;fill-opacity:1;fill-rule:nonzero;stroke:none"
         id="path164" /><path
         d="m 3697.26,2912.74 -1.36,-74.12 -42.06,9.65 z"
         style="fill:#f47089;fill-opacity:1;fill-rule:nonzero;stroke:none"
         id="path166" /><path
         d="m 4021.18,2838.24 c 16.89,22.41 51.1,-27.34 66.93,-61.63 15.82,-34.29 16.04,-53.71 3.11,-67.33 -12.94,-13.61 -37.48,-5.35 -62.03,27.13 -24.55,32.49 -17.66,85.28 -8.01,101.83"
         style="fill:#26b6a6;fill-opacity:1;fill-rule:nonzero;stroke:none"
         id="path168" /><path
         d="m 4087.46,2708.7 c -2.47,0 -6.12,0.58 -10.84,2.9 7.35,11.68 14.7,23.82 21.93,36.48 1.3,-5.43 1.93,-10.32 1.93,-14.77 0,-9.92 -3.17,-17.62 -9.26,-24.03 v 0 c 0,0 -1.29,-0.58 -3.76,-0.58 m -69.45,119.11 c 0.41,2.81 0.91,5.11 1.38,6.85 0.58,1.33 1.18,2.53 1.79,3.58 2.37,3.14 5.07,4.86 8.02,5.41 -3.59,-5.23 -7.33,-10.51 -11.19,-15.84"
         style="fill:#0b7465;fill-opacity:1;fill-rule:nonzero;stroke:none"
         id="path170" /><path
         d="m 4140.13,2831.57 c -59.63,-140.38 -143.49,-218.88 -180.99,-308.97 -49.18,3.35 -87.45,121.96 -50.85,172.69 0,0 143.83,155.7 156.86,216.89 11.55,54.32 27.09,143.92 25.72,189.78 -0.23,7.67 -3.63,14.74 -8.85,20.36 -15.09,16.24 -15.11,29.28 -24.79,47.22 -7.56,13.98 -15.83,19.21 -13.48,22.36 3.04,4.04 12.6,9.31 24.5,1.8 5.98,-3.78 9.88,-8.21 18.56,-17.8 0,0 3.87,24.74 -8.49,52.6 -16.74,37.76 -12.66,57.03 38.31,43.58 31.94,-8.43 52,-35.03 56.78,-111.81 1.39,-22.11 3.18,-67.91 0.56,-95.87 -5.53,-59.09 -9.09,-120.68 -16.35,-169.6 -3.23,-21.72 -8.9,-43.03 -17.49,-63.23"
         style="fill:#f6879f;fill-opacity:1;fill-rule:nonzero;stroke:none"
         id="path172" /><path
         d="m 3893.75,2693.65 126.91,144.97 c 0,0 -15.07,-35.36 17.92,-86.78 33.01,-51.42 52.64,-42.56 52.64,-42.56 0,0 -74.87,-109.3 -94.96,-145.89 -20.09,-36.59 -40.91,-67.44 -40.91,-67.44 0,0 -5.01,-12.92 -23.66,-12.92 -18.66,0 -67.99,82.6 -37.94,210.62"
         style="fill:#26b6a6;fill-opacity:1;fill-rule:nonzero;stroke:none"
         id="path174" /><path
         d="m 3931.69,2483.03 c -14.49,0 -47.46,49.79 -47.42,131.96 0.01,23.67 2.76,50.03 9.48,78.66 l 126.91,144.97 c 0,0 -3.43,-8.03 -3.44,-22 -0.01,-15.35 4.09,-37.86 21.36,-64.78 24.55,-38.23 41.7,-43.14 48.88,-43.14 2.47,0 3.76,0.58 3.76,0.58 0,0 -74.87,-109.3 -94.96,-145.89 -20.09,-36.59 -40.91,-67.44 -40.91,-67.44 0,0 -5.01,-12.92 -23.66,-12.92"
         style="fill:#06ab91;fill-opacity:1;fill-rule:nonzero;stroke:none"
         id="path176" /><path
         d="m 2864.75,2367.74 59.73,-79.54 -64.16,-73.53 -82.68,96.69 87.11,56.38"
         style="fill:#f47089;fill-opacity:1;fill-rule:nonzero;stroke:none"
         id="path178" /><path
         d="m 2669.31,2548.53 c 52.1,-2.44 76.93,-10.49 104.2,-42.62 26.62,-31.36 163.69,-229.4 163.69,-229.4 0,0 -24.11,-67.6 -76.88,-61.84 l -95.93,98.89 -95.08,234.97"
         style="fill:#33535f;fill-opacity:1;fill-rule:nonzero;stroke:none"
         id="path180" /><path
         d="m 2413.68,897.281 c -1.7,-12.562 -5.3,-27.211 -5.97,-62.742 -0.73,-38.07 -7.72,-51.59 -8.65,-82.84 -1.05,-35.707 5.11,-49.07 19.6,-69.14 14.5,-20.071 52.52,-38.289 68.6,-4.36 16.27,34.34 14,56.153 8.86,91.18 -5.31,36.211 -5.98,56.223 -9.06,83.832 -2.71,24.348 -5.97,42.84 -5.97,42.84 l -67.41,1.23"
         style="fill:#17282f;fill-opacity:1;fill-rule:nonzero;stroke:none"
         id="path182" /><path
         d="m 2521.78,1196.7 -125.44,2.27 c 1.86,-83.73 15.17,-223.13 17.34,-301.689 0.41,-14.793 -0.37,-114.929 5.21,-145.351 8.39,-45.719 62.65,-39.551 65.53,-12.188 2.88,27.36 -3.5,144.258 -3.33,156.309 -0.47,50.39 23.14,181.889 35.53,272.349 0.61,4.44 4.58,23.97 5.16,28.3"
         style="fill:#f8a39a;fill-opacity:1;fill-rule:nonzero;stroke:none"
         id="path184" /><path
         d="m 2706.13,962.43 c 0,0 -6.48,-0.371 -7.51,-5.649 -1.21,-6.293 -1.48,-16.222 -4.1,-26.543 -3.63,-14.34 -6.65,-37.976 -4.47,-49.668 2.18,-11.691 28.87,-29.101 47.12,-32.172 18.25,-3.058 44.01,-21.097 58.32,-34.558 17.53,-16.488 55.34,-32.07 81.09,-31.891 30.47,0.223 51.71,10.16 61.75,26.461 10.49,17.051 -9.14,18.301 -43.97,40.891 -7.91,5.14 -16.91,10.937 -27.04,17.551 -55.17,36.039 -75.37,55.347 -90.97,91.398 l -70.22,4.18"
         style="fill:#17282f;fill-opacity:1;fill-rule:nonzero;stroke:none"
         id="path186" /><path
         d="m 2776.78,982.039 c -0.93,25.931 12.36,216.931 12.36,216.931 l -107.9,-12.15 c 25.51,-152.25 27.58,-204.129 24.67,-226.289 -0.2,-0.582 -0.7,-2.691 -0.68,-6.371 0.11,-29.59 33.49,-45.539 59.54,-65.262 10.28,-7.789 36.71,-31.796 67.7,-42.347 20.05,-6.821 57.11,-9.41 61.87,2.769 -31.69,24.2 -74.82,55.809 -100.02,83.45 -12.03,13.191 -16.61,23.339 -17.54,49.269"
         style="fill:#f8a39a;fill-opacity:1;fill-rule:nonzero;stroke:none"
         id="path188" /><path
         d="m 2425.44,2062.61 c -58.87,-128.56 2.12,-581.42 2.12,-581.42 -1.77,-20.87 -25.63,-61.92 -34.51,-153.74 -10.5,-108.49 19.38,-398.919 19.38,-398.919 0,0 28.66,-21.441 70.24,-1.5 0,0 75.94,426.749 89.55,534.619 11.87,94.13 34.67,301.13 34.67,301.13 l 64.77,-300.63 c 0,0 -16.62,-52.73 -20.52,-92.91 -6.14,-63.45 55.64,-381.888 55.64,-381.888 0,0 28.91,-15.262 69.99,1.367 0,0 27.38,411.401 33.1,487.831 9.63,128.37 -24.46,528.89 -48,604.87 l -336.43,-18.81"
         style="fill:#26b6a6;fill-opacity:1;fill-rule:nonzero;stroke:none"
         id="path190" /><path
         d="m 2447.48,918.539 c -21.69,0 -35.05,9.992 -35.05,9.992 0,0 -21.62,210.129 -21.62,339.679 0,22.76 0.67,43.03 2.24,59.24 8.88,91.82 32.74,132.87 34.51,153.74 v 0 0 c 0,0 -24.59,182.63 -27.47,348.85 -0.07,3.84 -0.12,7.63 -0.16,11.45 -0.08,6.42 -0.11,12.82 -0.11,19.16 -0.01,65.57 3.94,126.5 14.84,169.98 26.72,-29.35 97.61,-55.23 176.85,-55.24 51.21,0 105.91,10.81 154.45,38.48 l -10.59,-43.5 43.97,12.77 c 16.53,-126.21 32.19,-330.4 32.21,-450.12 0,-22.02 -0.53,-41.17 -1.68,-56.47 -5.72,-76.43 -33.1,-487.831 -33.1,-487.831 -14.49,-5.867 -27.46,-7.758 -38.19,-7.758 -19.68,0 -31.8,6.391 -31.8,6.391 0,0 -56.07,288.988 -56.07,371.218 0,4.09 0.14,7.66 0.43,10.67 3.9,40.18 20.52,92.91 20.52,92.91 v 0 0 l -64.77,300.63 57.08,-263.19 -37.52,278.36 21.45,91.93 c 57.14,15.67 95.61,63.52 95.61,63.52 -36.66,-34.47 -117.51,-51.22 -117.51,-51.22 l -19.11,-119.4 c 0,0 -22.8,-207 -34.67,-301.13 -13.61,-107.87 -89.55,-534.619 -89.55,-534.619 -13.2,-6.332 -25.09,-8.492 -35.19,-8.492"
         style="fill:#0b7465;fill-opacity:1;fill-rule:nonzero;stroke:none"
         id="path192" /><path
         d="m 2663.97,1499.59 -57.08,263.19 19.11,119.4 c 0,0 80.85,16.75 117.51,51.22 0,0 -38.47,-47.85 -95.61,-63.52 l -21.45,-91.93 37.52,-278.36"
         style="fill:#0b584b;fill-opacity:1;fill-rule:nonzero;stroke:none"
         id="path194" /><path
         d="m 2455.63,2461.95 80.08,-20.85 v 169.25 c -44.22,11.52 -80.08,-13.99 -80.08,-56.97 v -91.43"
         style="fill:#26b6a6;fill-opacity:1;fill-rule:nonzero;stroke:none"
         id="path196" /><path
         d="m 2457.42,2461.48 -1.79,0.47 v 31.82 c 1.49,-10.55 2.01,-21.41 1.79,-32.29 m -1.79,67.15 v 24.75 c 0,32.12 20.02,54.48 48.6,58.93 9.76,-6.42 20.25,-11.76 31.31,-15.86 l 0.17,-54.06 -8.48,-0.76 c 0,0 -45.88,-6.5 -71.6,-13"
         style="fill:#0b584b;fill-opacity:1;fill-rule:nonzero;stroke:none"
         id="path198" /><path
         d="m 2614.02,2586.29 -28.74,0.66 c -87.56,2.01 -156.99,77.57 -155.05,168.77 -0.5,99.4 76.94,180.39 172.37,180.9 95.44,0.52 173.2,-79.64 173.7,-179.04 l -0.24,-10.26 c -2.18,-91.01 -74.65,-163.04 -162.04,-161.03"
         style="fill:#26b6a6;fill-opacity:1;fill-rule:nonzero;stroke:none"
         id="path200" /><path
         d="m 2535.54,2596.45 c -30.53,11.31 -56.67,32.08 -75.29,58.84 -7.68,11.05 -14.07,23.11 -18.96,35.96 -4.99,13.1 -8.41,27 -10.03,41.47 -0.71,6.32 -1.07,12.75 -1.07,19.27 0,1.24 0.01,2.48 0.04,3.73 v 0 0 c -0.01,0.29 -0.01,0.58 -0.01,0.87 -0.01,36.67 10.57,70.79 28.75,99.26 l 4.06,-2.39 c 1.82,3.62 2.63,7.52 2.63,11.37 0,0.26 0,0.52 -0.01,0.78 0.23,0.31 0.47,0.64 0.71,0.95 6.74,3.04 11.64,9.1 13.51,16.09 31.27,33.09 74.72,53.71 122.73,53.97 0.3,0 0.61,0.01 0.92,0.01 95.02,0 172.28,-79.96 172.78,-179.05 l -0.24,-10.26 c -0.85,-35.15 -12.17,-67.46 -30.79,-93.77 2,12.33 3.31,26.85 3.6,43.96 1.73,100.25 -19.79,134.56 -37,150.37 3.35,-35.62 -15.25,-79.5 -61.69,-103.79 -36.33,-18.99 -74.78,-27.1 -94.94,-30.29 -3.12,4.74 -8.28,7.97 -14.13,8.25 l -0.07,-10.1 c -0.04,0 -0.06,0 -0.06,0 -6.83,14.34 -20.11,21.7 -33.09,21.7 -8.77,0 -17.4,-3.37 -23.82,-10.22 -15.89,-16.98 -8.83,-48.43 11.78,-66.99 10.73,-9.67 19.54,-12.42 26.1,-12.42 8.69,0 13.42,4.84 13.42,4.84 l 0.17,-52.41"
         style="fill:#0b584b;fill-opacity:1;fill-rule:nonzero;stroke:none"
         id="path202" /><path
         d="m 2479.93,2895 c -3.23,12.44 -15.63,19.41 -27.7,15.56 l 7.66,-29.55 c -1.63,1.95 -3.51,3.7 -5.77,5.03 -10.77,6.35 -24.25,2.04 -30.1,-9.61 l 39.01,-22.97 c 2.04,4.06 2.82,8.48 2.6,12.79 10.99,4.51 17.37,16.92 14.3,28.75"
         style="fill:#26b6a6;fill-opacity:1;fill-rule:nonzero;stroke:none"
         id="path204" /><path
         d="m 2463.03,2853.46 -39.01,22.97 c 4.02,8 11.64,12.54 19.5,12.54 3.59,0 7.23,-0.94 10.6,-2.93 2.26,-1.33 4.14,-3.08 5.77,-5.03 v 0 0 l -7.66,29.55 c 2.25,0.72 4.51,1.06 6.72,1.06 9.65,0 18.35,-6.5 20.98,-16.62 0.52,-1.99 0.77,-3.99 0.77,-5.97 0.01,-2.17 -0.28,-4.32 -0.83,-6.38 -1.87,-6.99 -6.77,-13.05 -13.51,-16.09 -0.24,-0.11 -0.49,-0.21 -0.73,-0.31 v 0 0 c 0.02,-0.47 0.03,-0.95 0.03,-1.42 0,-3.85 -0.81,-7.75 -2.63,-11.37"
         style="fill:#0b584b;fill-opacity:1;fill-rule:nonzero;stroke:none"
         id="path206" /><path
         d="m 2527.23,2541.63 c 0,0 -57.91,-8.21 -80.09,-15.39 31,-76.04 -17.64,-193.48 -17.64,-193.48 l 45.88,-141.26 c -31.64,-64.93 -57.81,-97.13 -68.53,-149.89 29.17,-57.01 235.28,-111.43 369.45,-7.51 0,0 -4.34,144.33 -21.44,228.43 43.96,85.72 36.79,110.87 27.82,140.76 -20.87,69.51 -63.06,96.26 -113.37,145.24 l -30.34,3.19 -111.74,-10.09"
         style="fill:#273e47;fill-opacity:1;fill-rule:nonzero;stroke:none"
         id="path208" /><path
         d="m 2480.7,2134.87 c 24.87,25.55 77.66,32.83 77.66,32.83 l -48.42,27.63 -54.31,130.98 c 37.68,72.44 32.63,144.14 32.63,144.14 l -31.13,7.47 c 3.77,-69.28 -27.63,-145.16 -27.63,-145.16 l 45.88,-141.26 c -31.64,-64.93 -57.81,-97.13 -68.53,-149.89 19.96,-39.03 122.85,-76.81 228.81,-63.45 -141.99,9.49 -178.93,132.09 -154.96,156.71"
         style="fill:#17282f;fill-opacity:1;fill-rule:nonzero;stroke:none"
         id="path210" /><path
         d="m 2624.12,1976.91 c 1.94,0.18 3.87,0.42 5.8,0.63 -1.6,-0.04 -3.47,-0.22 -5.8,-0.63"
         style="fill:#e2e2e0;fill-opacity:1;fill-rule:nonzero;stroke:none"
         id="path212" /><path
         d="m 2711.87,2847.88 c 17.21,-15.81 38.73,-50.12 37,-150.37 -1.46,-84.96 -27.79,-106.09 -41.04,-112.21 -13.24,-6.12 -38.86,-2.58 -63.78,1.61 l -0.3,-35.19 c 0,0 32.85,-36.43 30.8,-59.82 -2.04,-23.4 -46.73,-33.1 -79.03,-10.44 -32.31,22.67 -59.81,60.51 -59.81,60.51 l -0.34,106.89 c 0,0 -14.57,-14.9 -39.52,7.58 -20.61,18.56 -27.67,50.01 -11.78,66.99 15.9,16.99 45.46,12.55 56.91,-11.48 0,0 56.8,4.75 109.2,32.14 46.44,24.29 65.04,68.17 61.69,103.79"
         style="fill:#f8a39a;fill-opacity:1;fill-rule:nonzero;stroke:none"
         id="path214" /><path
         d="m 2644.03,2716.98 c 0.34,-6.12 -3.99,-11.33 -9.64,-11.65 -5.66,-0.31 -10.51,4.4 -10.83,10.53 -0.33,6.12 3.99,11.33 9.64,11.64 5.67,0.31 10.51,-4.4 10.83,-10.52"
         style="fill:#17282f;fill-opacity:1;fill-rule:nonzero;stroke:none"
         id="path216" /><path
         d="m 2647.86,2645.78 26.69,-8.7 c -2.17,-7.96 -9.91,-12.46 -17.27,-10.05 -7.38,2.4 -11.59,10.8 -9.42,18.75"
         style="fill:#f57c6b;fill-opacity:1;fill-rule:nonzero;stroke:none"
         id="path218" /><path
         d="m 2740.16,2755.32 -24.22,8.27 c 1.81,7.01 8.72,10.85 15.41,8.56 6.68,-2.29 10.62,-9.82 8.81,-16.83"
         style="fill:#17282f;fill-opacity:1;fill-rule:nonzero;stroke:none"
         id="path220" /><path
         d="m 2541.11,2722.05 -0.27,-35.94 c 9.6,-0.46 17.44,7.22 17.52,17.14 0.08,9.93 -7.65,18.34 -17.25,18.8"
         style="fill:#26b6a6;fill-opacity:1;fill-rule:nonzero;stroke:none"
         id="path222" /><path
         d="m 2541.65,2686.09 c -0.27,0 -0.54,0 -0.81,0.02 l 0.27,35.94 c 9.57,-0.45 17.27,-8.81 17.25,-18.68 0,-0.04 0,-0.08 0,-0.12 -0.08,-9.64 -7.48,-17.16 -16.71,-17.16"
         style="fill:#0b584b;fill-opacity:1;fill-rule:nonzero;stroke:none"
         id="path224" /><path
         d="m 2731.78,2720.49 c 0.33,-6.11 -4,-11.32 -9.65,-11.64 -5.66,-0.31 -10.51,4.4 -10.83,10.52 -0.33,6.12 3.99,11.33 9.65,11.64 5.65,0.31 10.51,-4.4 10.83,-10.52"
         style="fill:#17282f;fill-opacity:1;fill-rule:nonzero;stroke:none"
         id="path226" /><path
         d="m 2674.82,2735.06 -0.27,-69.62 32.44,10.66 z"
         style="fill:#f57c6b;fill-opacity:1;fill-rule:nonzero;stroke:none"
         id="path228" /><path
         d="m 2644.05,2586.91 c -26.24,3.43 -80.29,19.29 -88.81,41.47 0,0 2.88,-13.95 19.06,-28.26 16.2,-14.3 69.61,-30.36 69.61,-30.36 l 0.14,17.15"
         style="fill:#f57c6b;fill-opacity:1;fill-rule:nonzero;stroke:none"
         id="path230" /><path
         d="m 2324.09,2185.91 c 0,0 64.17,-91.16 75.22,-103.09 11.04,-11.92 18.54,-7.95 30.47,-2.65 11.92,5.31 34.58,12.09 44.61,14.58 19.61,4.86 23.84,-13.25 4.41,-26.17 -14.05,-9.34 -30.14,-13.42 -23.41,-21.09 6.73,-7.66 27.5,-21.09 46.82,-28.7 47.36,-18.68 43.7,-28.06 34.98,-43.4 -7.6,-13.36 -29.73,-42.16 -114.45,-8.14 -34.95,14.03 -84.17,53.92 -107.39,79.65 -33.49,37.11 -85.74,103.61 -85.74,103.61 l 94.48,35.4"
         style="fill:#f8a39a;fill-opacity:1;fill-rule:nonzero;stroke:none"
         id="path232" /><path
         d="m 2459.49,2529.51 c -23.24,-1.55 -66.91,-7.15 -121.71,-98.14 -48.06,-79.8 -122.54,-188.1 -136.39,-226.82 -5.59,-15.61 16.25,-48.16 44.29,-81.45 38.36,1.68 73.26,28.18 91.36,49.37 -8.4,19.44 -17.69,32.14 -17.69,32.14 l 112.43,128.2 c 0,0 42.69,39.11 51.64,90.31 9.58,54.84 6.59,98.28 -23.93,106.39"
         style="fill:#33535f;fill-opacity:1;fill-rule:nonzero;stroke:none"
         id="path234" /><path
         d="m 3088.79,2356.93 -277.13,-73 -76.29,-313.56 263.49,76.53 89.93,310.03"
         style="fill:#26b6a6;fill-opacity:1;fill-rule:nonzero;stroke:none"
         id="path236" /><path
         d="m 2735.37,1970.37 76.29,313.56 277.13,73 -89.93,-310.03 -263.49,-76.53 m 228.2,164.5 c 2.5,-6.82 18.58,-31.03 49.03,-31.03 0.92,0 1.85,0.02 2.79,0.07 l 2.01,6.93 -53.83,24.03 m 33.63,187.37 c -6.54,0 -15.64,-1.33 -25.93,-3.99 l -40.83,-10.59 c -21.33,-5.53 -39.64,-14.75 -40.9,-20.58 l -2.28,-10.57 118.05,30.61 c 0,0 1.02,4.73 2.29,10.57 0.65,3.02 -3.39,4.55 -10.4,4.55"
         style="fill:#0cad96;fill-opacity:1;fill-rule:nonzero;stroke:none"
         id="path238" /><path
         d="m 3012.6,2103.84 c -30.45,0 -46.53,24.21 -49.03,31.03 l 53.83,-24.03 -2.01,-6.93 c -0.94,-0.05 -1.87,-0.07 -2.79,-0.07"
         style="fill:#05a58d;fill-opacity:1;fill-rule:nonzero;stroke:none"
         id="path240" /><path
         d="m 2887.26,2276.51 2.28,10.57 c 1.26,5.83 19.57,15.05 40.9,20.58 l 40.83,10.59 c 10.29,2.66 19.39,3.99 25.93,3.99 7.01,0 11.05,-1.53 10.4,-4.55 -1.27,-5.84 -2.29,-10.57 -2.29,-10.57 l -118.05,-30.61"
         style="fill:#05a58d;fill-opacity:1;fill-rule:nonzero;stroke:none"
         id="path242" /><path
         d="m 3026.59,2346.85 c 0.81,3.65 -5.78,4.61 -14.71,2.14 l -16.18,-4.47 c 0,0 4.83,22.86 -31.05,14.87 -35.88,-7.99 -43.72,-33.94 -43.72,-33.94 0,0 -7.74,-2.2 -17.27,-4.91 -9.53,-2.71 -18.17,-7.85 -19.29,-11.48 l -2.05,-6.58 142.76,37.59 c 0,0 0.71,3.13 1.51,6.78"
         style="fill:#273e47;fill-opacity:1;fill-rule:nonzero;stroke:none"
         id="path244" /><path
         d="m 3006.93,2335.58 c -13.08,-3.16 -18.51,-4.89 -20.46,-13.89 -2.24,-10.28 -3.15,-17.83 -3.15,-17.83 l -63.18,-16.7 c 0,0 3.05,13.02 4.02,18.09 0.99,5.07 -1.17,8.13 -11.22,5.47 l -0.86,4.03 99,25.2 -4.15,-4.37"
         style="fill:#273e47;fill-opacity:1;fill-rule:nonzero;stroke:none"
         id="path246" /><path
         d="m 3009.11,2306.12 c 0,0 1.02,4.74 2.29,10.58 1.26,5.83 -15,6.08 -36.33,0.55 l -40.83,-10.59 c -21.33,-5.53 -39.64,-14.74 -40.9,-20.58 l -2.28,-10.58 118.05,30.62"
         style="fill:#273e47;fill-opacity:1;fill-rule:nonzero;stroke:none"
         id="path248" /><path
         d="m 3059.59,2256.26 c 0,0 -10.36,-35.45 -12.73,-43.9 -2.38,-8.45 -33.42,-23.64 -53.79,-29.24 -20.38,-5.59 -42.66,-12.23 -33.02,-40.71 8.89,-26.27 42.41,-32.26 59.48,-31.52 17.06,0.74 40.43,17.06 49.63,43.35 11.75,33.54 5.42,69.37 10.08,88.96 4.67,19.58 -9.44,24.74 -19.65,13.06"
         style="fill:#f8a39a;fill-opacity:1;fill-rule:nonzero;stroke:none"
         id="path250" /><path
         d="m 2009.91,2247.93 c -38.01,38.29 -51.59,23.41 -56.4,-18.6 -3.54,-30.99 -12.68,-51.32 -12.68,-51.32 -2.69,12.97 -3.83,18.9 -7.15,25.34 -6.6,12.79 -17.78,13.1 -22.55,11.1 -3.71,-1.55 0.88,-10.45 0.3,-26.71 -0.75,-20.84 -7.48,-32.35 -2.61,-54.48 1.82,-8.29 0.3,-16.93 -3.73,-24.39 -20.51,-37.95 -85.94,-108.21 -132.05,-158.75 -40.75,36.83 -131.93,119.2 -175.57,158.53 -59.88,53.95 -79.41,78.28 -137.32,74.32 0,0 22.43,-6.83 49.27,-29.53 26.83,-22.7 20.44,-152.62 20.44,-152.62 0,0 199.22,-142.86 219.71,-156.45 3,-1.99 6.08,-3.8 9.13,-5.42 20,-10.65 44.77,-5.59 59.69,11.45 42.54,48.63 104.49,144.28 140.34,194.02 16.81,23.32 33.06,55.18 43.31,75.41 35.58,70.22 31.68,104.1 7.87,128.1"
         style="fill:#9b3e49;fill-opacity:1;fill-rule:nonzero;stroke:none"
         id="path252" /><path
         d="m 1466.05,2186.52 c 0,0 40.35,10.55 80.12,-19.63 34.19,-25.95 179.63,-159.7 179.63,-159.7 0,0 3.96,-70.84 -69.95,-113.13 l -178.79,126.08 -11.01,166.38"
         style="fill:#26b6a6;fill-opacity:1;fill-rule:nonzero;stroke:none"
         id="path254" /><path
         d="m 1655.85,1894.06 -55.32,39.01 -20.61,14.53 c -1.35,38.09 -2.67,72.3 -3.86,97.96 -4.06,87.35 -24.15,131.33 -110.01,140.96 v 0 c 0,0 6.83,1.78 17.64,1.78 15.47,0 39.08,-3.65 62.48,-21.41 34.19,-25.95 179.63,-159.7 179.63,-159.7 0,0 0.04,-0.66 0.04,-1.89 0,-2.24 -0.12,-6.35 -0.8,-11.8 -2.61,-20.85 -13.39,-61.31 -56.84,-91.63 -3.85,-2.69 -7.96,-5.3 -12.35,-7.81"
         style="fill:#06ab91;fill-opacity:1;fill-rule:nonzero;stroke:none"
         id="path256" /><path
         d="m 1217.9,451.629 h 75.71 v 135 h -75.71 v -135"
         style="fill:#9b3e49;fill-opacity:1;fill-rule:nonzero;stroke:none"
         id="path258" /><path
         d="m 1480.42,593.84 75.67,-2.719 3.79,142.879 -79.46,2.711 V 593.84"
         style="fill:#9b3e49;fill-opacity:1;fill-rule:nonzero;stroke:none"
         id="path260" /><path
         d="m 1207.24,1755.48 c 0,-75.3 11.09,-681.35 11.09,-681.35 -1.77,-21.67 -21.27,-61.62 -17.05,-144.849 5.74,-113.051 13.38,-410.152 13.38,-410.152 0,0 36.76,-22.367 84.31,-1.731 0,0 71.61,411.493 85.18,523.532 11.84,97.78 31.93,426.99 31.93,426.99 l 41.04,-382.79 c 0,0 -13.96,-58.32 -9.38,-125.321 3.54,-51.829 27.89,-321.719 27.89,-321.719 0,0 35.64,-25.18 87.42,-6.969 0,0 43.07,406.469 43.95,454.009 1,54.22 -25.18,671.16 -25.18,671.16 l -374.58,-0.81"
         style="fill:#273e47;fill-opacity:1;fill-rule:nonzero;stroke:none"
         id="path262" /><path
         d="m 1293.61,490.559 v 11.281 c 7.25,-3.289 24.09,-70.18 54.13,-98.719 23.88,-22.691 56.46,-48.891 64.75,-74.191 8.61,-26.309 -45.37,-40.828 -67.69,-36.719 -25.92,4.789 -70.86,23.801 -82.14,41.418 -11.28,17.633 -16.56,43.633 -25.73,56.551 -9.17,12.922 -30.29,27.34 -35.25,42.289 -2.72,8.222 0.51,26.203 4.34,41.402 3.5,13.938 7.31,29.277 11.88,27.969 0.02,-1.699 0,-8.602 0,-8.602 5.5,-6.34 20.7,-12.636 37.86,-13.328 11.07,-0.441 37.95,1.852 37.85,10.649"
         style="fill:#17282f;fill-opacity:1;fill-rule:nonzero;stroke:none"
         id="path264" /><path
         d="m 1556.9,615.449 c 3.93,-0.148 7.13,-5.918 15.8,-15.699 10.48,-11.809 27.62,-24.559 44.54,-33.379 28.35,-14.781 83.47,-37.519 108.42,-49.223 15.59,-7.316 14.85,-26.918 -1.25,-38.078 -16.11,-11.16 -55.01,-19.199 -101.71,-8.32 -25.44,5.93 -58.56,30.398 -79.53,29.082 -20.96,-1.32 -60.18,-1.012 -75.65,10.098 -15.48,11.109 -9.29,34.832 -4.91,55.218 4.77,22.25 10.74,56.954 17.81,55.422 v -7.66 c 9.1,-14.359 56.08,-20.199 76.07,-9.64 l 0.41,12.179"
         style="fill:#17282f;fill-opacity:1;fill-rule:nonzero;stroke:none"
         id="path266" /><path
         d="m 1416.08,1467.92 c 0,0 60.52,17.76 105.44,62.97 0,0 -20.35,-39.68 -80.85,-76.6 l 12.94,-341.84 -37.53,355.47"
         style="fill:#17282f;fill-opacity:1;fill-rule:nonzero;stroke:none"
         id="path268" /><path
         d="m 1246.63,2166.24 c 0,0 -59.25,-5.42 -55.04,-118.3 l 13.09,-179.81 -1.23,-269.83 c 55.68,-63.09 302.52,-58.47 387.02,5.06 0,0 -8.7,319.32 -14.41,442.2 -4.06,87.35 -24.15,131.33 -110.01,140.96 l -105.58,-4.65 -113.84,-15.63"
         style="fill:#26b6a6;fill-opacity:1;fill-rule:nonzero;stroke:none"
         id="path270" /><path
         d="m 1424.42,2007.19 -9.54,99.85 13.6,-94.8 31.67,0.6 -35.73,-5.65"
         style="fill:#06ab91;fill-opacity:1;fill-rule:nonzero;stroke:none"
         id="path272" /><path
         d="m 1058.71,1778.63 c 30.72,246.97 101.37,369.74 187.51,384.17 l -6.11,-158.01 c 0,0 -57.85,-131.92 -81.98,-261.45 -11.32,-60.8 -24.45,-166.51 -21.04,-218.47 0.6,-9.2 4.67,-17.76 11,-24.22 16.97,-17.33 22.13,-32.3 33.53,-51.85 8.93,-15.31 18.15,-20.72 15.77,-24.39 -3.05,-4.73 -13.1,-11.2 -26.36,-3.43 -6.67,3.91 -14.68,11.85 -24.59,22.16 0,0 -2.51,-38.1 12.36,-68.76 20.15,-41.54 16.8,-63.45 -39.01,-51.21 -34.98,7.66 -60.19,44.55 -69.55,130.67 -2.7,24.81 -3.04,64.93 -1.73,96.55 3.39,82.32 4.05,178.83 10.2,228.24"
         style="fill:#9b3e49;fill-opacity:1;fill-rule:nonzero;stroke:none"
         id="path274" /><path
         d="m 1251.13,2166.88 c -44.73,0.17 -85.54,-7.68 -117.99,-70.19 -31.12,-59.94 -55.05,-186.92 -67.13,-228.37 0,0 65.31,-38.6 125.37,-37.66 l 42.33,146.84 c 0,0 28.57,68.55 17.42,189.38"
         style="fill:#26b6a6;fill-opacity:1;fill-rule:nonzero;stroke:none"
         id="path276" /><path
         d="m 1189.23,1830.64 c -3.44,0 -6.89,0.12 -10.34,0.36 -45.36,3.12 -90.96,25.47 -106.92,34.01 -3.84,2.06 -5.96,3.31 -5.96,3.31 12.08,41.45 36.01,168.43 67.13,228.37 32.12,61.86 72.42,70.19 116.61,70.19 0.46,0 0.92,0 1.38,0 1.82,-19.7 2.58,-38.02 2.58,-54.87 0.01,-86.5 -20,-134.51 -20,-134.51 l -29.53,-102.44 -12.8,-44.4 c -0.72,-0.02 -1.43,-0.02 -2.15,-0.02"
         style="fill:#06ab91;fill-opacity:1;fill-rule:nonzero;stroke:none"
         id="path278" /><path
         d="m 1343.38,2421.13 c 0,-64.84 50.47,-117.41 112.72,-117.41 62.26,0 112.72,52.57 112.72,117.41 0,64.84 -50.46,117.41 -112.72,117.41 -62.25,0 -112.72,-52.57 -112.72,-117.41"
         style="fill:#17282f;fill-opacity:1;fill-rule:nonzero;stroke:none"
         id="path280" /><path
         d="m 1271.67,2362.39 c 0,0 17.29,-84.6 24.22,-98.5 6.94,-13.9 21.26,-17.85 21.26,-17.85 l -1.21,59.51 -44.27,56.84"
         style="fill:#17282f;fill-opacity:1;fill-rule:nonzero;stroke:none"
         id="path282" /><path
         d="m 1293.37,2483.59 c 0,0 -12.4,3.11 -25.57,-17.47 -11.29,-17.64 -13.85,-57.26 3.87,-103.73 l 32.57,-3.89 -10.87,125.09"
         style="fill:#17282f;fill-opacity:1;fill-rule:nonzero;stroke:none"
         id="path284" /><path
         d="m 1314,2358.47 c -6.52,-4.06 -15.84,9.01 -23.89,17.78 -8.06,8.78 -34.35,20.77 -47.46,-8.01 -13.36,-29.33 11.57,-68.09 32.27,-74.85 35.67,-11.67 41.02,12.16 41.02,12.16 l 2.73,-134 c 47.35,-73.25 154.61,-70.6 116.05,3.54 l -0.1,40.79 c 0,0 32.31,-5.11 48.08,-2.58 26.24,4.23 42.74,25.78 50.69,55.36 12.78,47.5 17.64,85.85 6.8,179.27 -11.89,102.39 -126.23,103.46 -187.98,62.98 -61.75,-40.48 -38.21,-152.44 -38.21,-152.44"
         style="fill:#9b3e49;fill-opacity:1;fill-rule:nonzero;stroke:none"
         id="path286" /><path
         d="m 1318.06,2201.59 c 0,0 16.66,-36.02 46.37,-58.11 27.32,-20.3 56.12,-23.85 56.12,-23.85 0,0 -27.79,-18.4 -39.59,-44.45 -11.81,-26.05 -95.13,45.67 -94.39,96.55 0,0 13.08,51.1 30.99,54.38 l 0.5,-24.52"
         style="fill:#17282f;fill-opacity:1;fill-rule:nonzero;stroke:none"
         id="path288" /><path
         d="m 1420.55,2119.63 c 0,0 25.69,12.77 14.17,55.46 l -0.1,40.79 11.25,-1.51 c 8.77,-7.89 22.56,-26.47 27.08,-46.9 2.57,-11.67 8.91,-70.85 -2.38,-82.6 -10.27,-10.7 -27,31.58 -50.02,34.76"
         style="fill:#17282f;fill-opacity:1;fill-rule:nonzero;stroke:none"
         id="path290" /><path
         d="m 1314.01,2347.03 c -3.29,-0.07 -15.78,21.52 -23.9,29.22 -11.27,10.68 3.26,107.34 3.26,107.34 0,0 -10.82,24.03 10.87,48.9 15.43,17.68 41.22,19.65 85.25,26.85 17.15,2.81 35.47,4.68 52.19,9.41 17.91,5.07 35.52,16.95 52.19,25.41 5.52,2.79 11.69,5.67 17.66,4.06 5.74,-1.54 9.74,-7.02 11.22,-12.77 1.49,-5.75 0.92,-11.81 0.34,-17.72 10.2,11.26 30.13,9.61 40.55,-1.45 10.41,-11.06 11.85,-28.58 6.33,-42.73 -5.53,-14.15 -16.95,-25.29 -29.54,-33.79 -55.34,-37.35 -120.65,-26.98 -182.59,-19.65 -2.97,0.36 -6.11,0.65 -8.83,-0.58 -9.69,-4.4 -11.77,-34.53 -13.47,-43.23 -5.74,-29.34 -10.5,-79.05 -21.53,-79.27"
         style="fill:#17282f;fill-opacity:1;fill-rule:nonzero;stroke:none"
         id="path292" /><path
         d="m 1293.43,2478.49 -39.48,22.08 c 5.6,11.78 18.99,16.39 29.89,10.29 10.9,-6.09 15.2,-20.58 9.59,-32.37"
         style="fill:#17282f;fill-opacity:1;fill-rule:nonzero;stroke:none"
         id="path294" /><path
         d="m 1434.62,2215.88 c 0,0 -58.56,12.28 -79.03,23.61 -13.7,7.59 -24.98,20.74 -28.3,29.17 0,0 3.84,-18.1 16.08,-34.4 14.97,-19.93 91.25,-34.61 91.25,-34.61 v 16.23"
         style="fill:#802933;fill-opacity:1;fill-rule:nonzero;stroke:none"
         id="path296" /><path
         d="m 1413.43,2377.2 c 0,-7.01 -5.25,-12.68 -11.73,-12.66 -6.48,0.01 -11.73,5.72 -11.73,12.73 0,7.01 5.25,12.68 11.73,12.66 6.48,-0.02 11.73,-5.72 11.73,-12.73"
         style="fill:#17282f;fill-opacity:1;fill-rule:nonzero;stroke:none"
         id="path298" /><path
         d="m 1393.29,2427.99 -25.11,-14.42 c -3.7,7.51 -1.07,16.83 5.85,20.81 6.94,3.99 15.56,1.12 19.26,-6.39"
         style="fill:#17282f;fill-opacity:1;fill-rule:nonzero;stroke:none"
         id="path300" /><path
         d="m 1429.32,2289.29 26.78,-10.47 c -2.65,-7.99 -10.79,-12.13 -18.19,-9.24 -7.4,2.89 -11.24,11.72 -8.59,19.71"
         style="fill:#802933;fill-opacity:1;fill-rule:nonzero;stroke:none"
         id="path302" /><path
         d="m 1530.66,2413.99 -26.39,12.85 c 3.05,7.69 11.42,11.05 18.71,7.5 7.28,-3.55 10.72,-12.66 7.68,-20.35"
         style="fill:#17282f;fill-opacity:1;fill-rule:nonzero;stroke:none"
         id="path304" /><path
         d="m 1513.26,2377.2 c 0,-7.01 -5.25,-12.69 -11.74,-12.66 -6.48,0.01 -11.73,5.71 -11.73,12.73 0,7.01 5.25,12.68 11.73,12.66 6.49,-0.02 11.74,-5.72 11.74,-12.73"
         style="fill:#17282f;fill-opacity:1;fill-rule:nonzero;stroke:none"
         id="path306" /><path
         d="m 1446.78,2386.28 1.36,-74.12 42.07,9.65 z"
         style="fill:#802933;fill-opacity:1;fill-rule:nonzero;stroke:none"
         id="path308" /><path
         d="m 1360.67,2378.53 c 0,19.44 15.52,35.25 34.6,35.25 h 5.35 c 19.07,0 34.6,-15.81 34.6,-35.25 0,-19.44 -15.53,-35.25 -34.6,-35.25 h -5.35 c -19.08,0 -34.6,15.81 -34.6,35.25 z m 34.6,29.31 c -15.86,0 -28.77,-13.15 -28.77,-29.31 0,-16.17 12.91,-29.31 28.77,-29.31 h 5.35 c 15.86,0 28.76,13.14 28.76,29.31 0,16.16 -12.9,29.31 -28.76,29.31 h -5.35"
         style="fill:#17282f;fill-opacity:1;fill-rule:nonzero;stroke:none"
         id="path310" /><path
         d="m 1466.17,2378.53 c 0,19.44 15.52,35.25 34.6,35.25 h 5.35 c 19.07,0 34.59,-15.81 34.59,-35.25 0,-19.44 -15.52,-35.25 -34.59,-35.25 h -5.35 c -19.08,0 -34.6,15.81 -34.6,35.25 z m 34.6,29.31 c -15.86,0 -28.77,-13.15 -28.77,-29.31 0,-16.17 12.91,-29.31 28.77,-29.31 h 5.35 c 15.85,0 28.76,13.14 28.76,29.31 0,16.16 -12.91,29.31 -28.76,29.31 h -5.35"
         style="fill:#17282f;fill-opacity:1;fill-rule:nonzero;stroke:none"
         id="path312" /><path
         d="m 1434.79,2385.49 c 3.2,5.35 10.37,9.07 18.28,9.49 6.8,0.35 12.81,-1.94 15.94,-6.14 l 4.65,3.6 c -4.36,5.85 -11.96,8.94 -20.89,8.47 -9.93,-0.51 -18.72,-5.24 -22.96,-12.33 l 4.98,-3.09"
         style="fill:#17282f;fill-opacity:1;fill-rule:nonzero;stroke:none"
         id="path314" /><path
         d="m 1304.24,2379.83 h 59.64 v 5.94 h -59.64 v -5.94"
         style="fill:#17282f;fill-opacity:1;fill-rule:nonzero;stroke:none"
         id="path316" /></g></g></svg>
